<?xml version="1.0" encoding="utf-8"?>
<!-- Generator: Adobe Illustrator 15.0.0, SVG Export Plug-In . SVG Version: 6.00 Build 0)  -->
<!DOCTYPE svg PUBLIC "-//W3C//DTD SVG 1.1//EN" "http://www.w3.org/Graphics/SVG/1.1/DTD/svg11.dtd">
<svg version="1.1" id="Layer_1" xmlns="http://www.w3.org/2000/svg" xmlns:xlink="http://www.w3.org/1999/xlink" x="0px" y="0px"
	 width="259.5px" height="259.5px" viewBox="0 0 259.5 259.5" enable-background="new 0 0 259.5 259.5" xml:space="preserve">
<g>
	<g>
		<g>
			<path fill="#009E47" d="M54.588,215.061c-0.058,3.172-0.288,5.883-2.221,8.596c-2.135,2.971-5.336,4.268-8.971,4.268
				c-6.836,0-11.596-4.643-11.596-11.48c0-7.066,4.788-11.711,11.798-11.711c4.471,0,7.932,2.02,9.807,6.088l-5.365,2.25
				c-0.778-2.078-2.423-3.463-4.701-3.463c-3.721,0-5.653,3.549-5.653,6.865c0,3.375,2.019,6.809,5.739,6.809
				c2.452,0,4.327-1.27,4.558-3.779h-4.615v-4.441H54.588z"/>
			<path fill="#009E47" d="M62.55,222.416h6.778v4.787H56.896v-21.748h5.654V222.416z"/>
			<path fill="#009E47" d="M93.817,215.926c0,7.037-5.048,11.998-12.028,11.998s-12.028-4.961-12.028-11.998
				c0-6.578,5.769-11.193,12.028-11.193C88.048,204.732,93.817,209.348,93.817,215.926z M75.646,215.953
				c0,3.75,2.769,6.49,6.144,6.49s6.144-2.74,6.144-6.49c0-3-2.769-5.74-6.144-5.74S75.646,212.953,75.646,215.953z"/>
			<path fill="#009E47" d="M96.441,227.203v-21.748h8.077c3.865,0,6.461,1.5,6.461,5.652c0,1.963-0.635,3.549-2.395,4.443v0.057
				c3.116,0.404,4.442,2.51,4.442,5.539c0,4.557-3.894,6.057-7.874,6.057H96.441z M102.096,213.992h0.634
				c1.5,0,3.058-0.26,3.058-2.105c0-1.99-1.759-2.105-3.288-2.105h-0.403V213.992z M102.096,222.877h0.721
				c1.673,0,4.5,0.086,4.5-2.309c0-2.625-2.798-2.365-4.645-2.365h-0.576V222.877z"/>
			<path fill="#009E47" d="M121.479,223.424l-1.499,3.779h-6l8.365-21.748h6.173l8.191,21.748h-6.028l-1.413-3.779H121.479z
				 M125.431,212.176h-0.058l-2.336,6.922h4.701L125.431,212.176z"/>
			<path fill="#009E47" d="M143.949,222.416h6.779v4.787h-12.434v-21.748h5.654V222.416z"/>
		</g>
		<g>
			<path fill="#009E47" d="M172.145,216.271c0.057,2.941-0.26,5.365-2.25,7.672c-1.99,2.309-5.02,3.635-8.047,3.635
				c-6.115,0-11.193-5.076-11.193-11.191c0-6.23,5.078-11.307,11.336-11.307c3.809,0,6.895,1.701,9.203,4.701l-1.76,1.645
				c-1.818-2.568-4.27-4.096-7.471-4.096c-4.963,0-8.885,4.182-8.885,9.086c0,2.307,0.922,4.5,2.539,6.143
				c1.586,1.588,3.893,2.77,6.172,2.77c3.779,0,7.76-2.77,7.76-6.807h-6.461v-2.25H172.145z"/>
			<path fill="#009E47" d="M178.432,225.934c0,0.895-0.721,1.645-1.615,1.645s-1.615-0.75-1.615-1.645
				c0-0.865,0.721-1.586,1.615-1.586S178.432,225.068,178.432,225.934z"/>
			<path fill="#009E47" d="M186.971,221.031l-2.625,6.172h-2.654l10.039-22.787l9.777,22.787h-2.682l-2.568-6.172H186.971z
				 M191.672,210.07l-3.721,8.711h7.355L191.672,210.07z"/>
			<path fill="#009E47" d="M208.633,225.934c0,0.895-0.723,1.645-1.615,1.645c-0.895,0-1.615-0.75-1.615-1.645
				c0-0.865,0.721-1.586,1.615-1.586C207.91,224.348,208.633,225.068,208.633,225.934z"/>
			<path fill="#009E47" d="M215.785,227.203h-2.422v-21.748h3.576c1.875,0,3.807,0.057,5.395,1.152
				c1.615,1.125,2.451,3.029,2.451,4.963c0,1.758-0.721,3.547-2.076,4.672c-1.473,1.211-3.346,1.441-5.164,1.441h-1.76V227.203z
				 M215.785,215.436h1.615c2.684,0,4.961-0.809,4.961-3.924c0-3.549-2.855-3.807-5.682-3.807h-0.895V215.436z"/>
			<path fill="#009E47" d="M227.699,225.934c0,0.895-0.723,1.645-1.615,1.645c-0.895,0-1.615-0.75-1.615-1.645
				c0-0.865,0.721-1.586,1.615-1.586C226.977,224.348,227.699,225.068,227.699,225.934z"/>
		</g>
	</g>
	<g>
		<path fill-rule="evenodd" clip-rule="evenodd" fill="#009E47" d="M128.342,33.628c-0.128-1.148-0.613-1.422-1.758-2.052
			c-0.342,0-0.685,0-1.026,0c-0.859,0.439-1.564,0.794-1.758,1.612C122.821,37.303,128.727,37.094,128.342,33.628z"/>
		<path fill-rule="evenodd" clip-rule="evenodd" fill="#009E47" d="M133.765,36.705c2.822,1.665,5.432-0.683,5.273-3.81
			c-2.634,0.15-5.569-0.002-5.421,2.931c1.637,0.268,2.44-1.075,3.517-0.879c-1.396,0.998-3.528,1.259-5.129,2.051
			C132.613,37.501,133.14,36.672,133.765,36.705z"/>
		<path fill-rule="evenodd" clip-rule="evenodd" fill="#009E47" d="M110.172,40.368c0.792-0.619,0.814-3.012,0.146-3.811
			c-1.018-0.3-2.558-0.079-3.809-0.146c0,1.368,0,2.736,0,4.103C107.738,40.474,109.162,40.628,110.172,40.368z"/>
		<path fill-rule="evenodd" clip-rule="evenodd" fill="#009E47" d="M118.377,39.928c0-1.025,0-2.051,0-3.077
			c-1.179-0.251-1.413,0.442-2.051,0.732C116.103,39.272,116.77,40.071,118.377,39.928z"/>
		<path fill-rule="evenodd" clip-rule="evenodd" fill="#009E47" d="M126.29,37.73c-0.341,0-0.684,0-1.026,0
			c-0.916,2.034,0.346,4.178,1.905,4.689c1.347,0.251,3.232,0.223,4.104-0.44c0-0.341,0-0.684,0-1.026
			c-0.146,0-0.175-0.119-0.292-0.146c-0.788-0.319-2.924,0.436-3.664-0.293C126.149,40.411,126.949,38.341,126.29,37.73z"/>
		<path fill-rule="evenodd" clip-rule="evenodd" fill="#009E47" d="M124.239,46.375c0.238,2.937-0.51,6.86,0.44,9.085
			c0.219,0.025,0.541-0.052,0.585,0.146c0.816,0.132,1.047-0.32,1.466-0.586c0.033-0.114,0.004-0.289,0.146-0.293
			c0-3.126,0-6.252,0-9.378c0-0.146,0-0.293,0-0.44c0-0.781,0-1.563,0-2.344c-1.354-0.698-2.317-1.786-2.198-3.956
			c0.062-0.898,0.705-1.332,1.172-1.318c1.547,0.041,0.546,2.093,1.466,2.93c0.208-0.783,0.208-2,0-2.784
			c-1.091-1.269-3.363-0.26-3.517,1.173C122.92,40.569,122.491,45.063,124.239,46.375z"/>
		<path fill-rule="evenodd" clip-rule="evenodd" fill="#009E47" d="M104.018,41.248c0.244,0.293,0.394,0.68,0.879,0.732
			c0.046-0.583-0.678-0.397-0.733-0.879c0.126-1.69-2.309-2.047-3.224-1.026C101.457,40.91,102.95,42.771,104.018,41.248z"/>
		<path fill-rule="evenodd" clip-rule="evenodd" fill="#009E47" d="M153.985,48.134c-0.392,0-0.781,0-1.173,0
			c0.053,0.736-0.039,1.329-0.293,1.758c0.892,0.671,3.02,0.106,4.396,0.293c-0.598-4.188,3.715-6.29,6.887-4.396
			c0-0.488,0-0.977,0-1.465c0-0.147-0.118-0.174-0.146-0.292c-0.78-0.012-2.126,0.588-2.052-0.586
			c0.542-0.094,1.46,0.189,1.759-0.147c-0.734-1.366-2.736-1.464-4.396-1.905c0.555-1.08,0.144-2.325,0-3.516
			c0.374-0.114,0.555-0.421,0.438-1.025c-1.456-0.422-1.666,1.543-0.878,2.051c-0.244,0-0.489,0-0.733,0
			c-0.322,1.447,0.631,2.394,0.146,3.517c-0.018-0.422,0.08-0.959-0.146-1.172c-1.023-0.149-2.168-0.177-3.37-0.147
			c-0.296-2.062-0.359-4.413-0.733-6.008c-3.468,0-6.936,0-10.403,0c-0.031,0.165-0.163,0.228-0.293,0.293
			c0.741,1.528-0.553,3.628-0.879,5.422C148.944,40.378,153.9,41.821,153.985,48.134z M145.192,36.119c2.639,0,5.276,0,7.913,0
			c0.07,2.665,0.894,4.578,0.732,7.473c-1.282-0.296-1.946-1.397-2.93-2.052c-1.506-1-3.224-1.477-5.716-1.758
			C145.192,38.561,145.192,37.34,145.192,36.119z"/>
		<path fill-rule="evenodd" clip-rule="evenodd" fill="#009E47" d="M91.855,42.859c-0.965,1.24,0.201,2.619,0,3.956
			c-0.42,0.798,0.061,2.833,0.733,1.466c-0.318-0.52-0.231-1.888,0.44-1.905c0.516,0.461,0.854,1.1,0.732,2.198
			c0.293,0,0.586,0,0.879,0c-0.46-0.942-0.624-2.47,0-3.37c1.706-0.093,3.085,0.138,4.103,0.732c0,0.05,0,0.098,0,0.147
			c0.394,0.547,0.01,1.568,0,2.198c0.499-0.003,0.98,0.768,1.465,0.293c-0.348-0.291-0.445-1.601-0.146-2.052
			c1.482-0.065,1.432,1.401,3.077,1.173c-0.152-0.413-0.281-1.371,0-1.759c0.437-0.209,0.893,0.515,0.879-0.146
			c-0.188-0.935-1.236-1.01-1.319-2.052c-0.767-0.55-1.672-0.965-2.344-1.612c-2.604-1.142-5.484-0.622-7.62,0.147
			c-0.873,0.314-2.26,0.45-2.198,1.464C90.991,43.46,91.131,42.868,91.855,42.859z"/>
		<path fill-rule="evenodd" clip-rule="evenodd" fill="#009E47" d="M141.969,41.833c-0.226,0.96,0.515,0.951,0.587,1.612
			c1.618-1.575,5.89-2.333,7.766-0.44c1.272,0.819,1.954,2.219,2.491,3.664c0.135,0.36-0.221,1.434,0.732,1.172
			c0.578-6.153-6.371-7.501-12.455-6.593C140.787,42.039,141.889,41.425,141.969,41.833z"/>
		<path fill-rule="evenodd" clip-rule="evenodd" fill="#009E47" d="M113.249,41.833c-0.695,0.281-0.822,1.131-1.172,1.758
			c0.635,0,1.269,0,1.904,0C114.06,42.684,113.266,42.646,113.249,41.833z"/>
		<path fill-rule="evenodd" clip-rule="evenodd" fill="#009E47" d="M150.029,43.298c-2.053-1.427-5.765-0.881-7.181,0.733
			c-2.714,3.2-1.273,8,2.052,9.084C151.48,55.262,154.774,46.434,150.029,43.298z M145.192,49.16
			c-1.866-2.322,1.074-4.514,3.078-3.224C150.997,47.692,147.043,52.237,145.192,49.16z"/>
		<path fill-rule="evenodd" clip-rule="evenodd" fill="#009E47" d="M131.126,40.661c0.787,0.336,2.091,0.156,2.491,0.879
			c-0.736-0.094-1.272-0.388-2.052-0.439c-0.193,1.219,1.581,0.47,1.759,1.319c-0.729-0.052-1.153-0.41-1.904-0.44
			c0.043,0.288-0.198,0.291-0.294,0.44c0.575,0.354,1.67,0.186,2.052,0.733c-1.33,0.151-3.249-1.564-3.225,0.585
			c1.183,0.089,2.035,0.506,3.078,0.733c0.033-0.26-0.147-0.734,0.293-0.586c0.201,0.334-0.378,0.55,0,0.586
			c1.228-0.629,1.233-2.479,1.758-3.81c-0.105-0.448,0.253-0.431,0.146-0.879c-1.402-0.306-2.692-0.726-4.103-1.026
			c-0.036,0.453-0.148,0.829-0.293,1.172C130.708,40.396,130.961,40.484,131.126,40.661z"/>
		<path fill-rule="evenodd" clip-rule="evenodd" fill="#009E47" d="M115.886,44.032c0.653,0.275,1.092,0.764,1.758,1.025
			c0-0.684,0-1.367,0-2.051C116.846,43.135,116.365,43.583,115.886,44.032z"/>
		<path fill-rule="evenodd" clip-rule="evenodd" fill="#009E47" d="M111.051,57.219c2.386,0.474,4.578-0.1,6.008-1.025
			c0.378-0.501,0.817-0.94,1.318-1.319c0.315-0.662,0.757-1.197,1.025-1.905c0.275-0.85,0.341-1.906,0.294-3.077
			c-0.345-4.454-5.694-7.215-10.111-4.836C104.796,47.438,106.016,56.066,111.051,57.219z"/>
		<path fill-rule="evenodd" clip-rule="evenodd" fill="#009E47" d="M132.005,47.548c-0.096,1.122,0.146,1.905,0.293,2.784
			c0.387,0.395,0.503,1.06,0.88,1.465c0.635,0,1.271,0,1.904,0c0-0.097,0-0.195,0-0.293c-1.06-3.652,2.835-5.855,0.44-8.059
			c-0.725,0.78-2.005,1.932-1.173,3.37c0.551,0.674,0.048,2.104-0.146,2.931C133.727,48.758,133.163,47.855,132.005,47.548z"/>
		<path fill-rule="evenodd" clip-rule="evenodd" fill="#009E47" d="M157.501,50.479c0.533,3.776,7.534,3.603,7.62-0.44
			c0.142-1.997-0.716-2.995-1.758-3.809C160.355,44.47,156.575,46.927,157.501,50.479z M159.846,49.16
			c0.41-2.057,2.84-1.276,3.078-0.146C163.394,51.242,159.264,52.08,159.846,49.16z"/>
		<path fill-rule="evenodd" clip-rule="evenodd" fill="#009E47" d="M131.126,44.764c-0.049,0-0.098,0-0.146,0
			c-1.332,0.623-3.217,0.691-2.639,3.224c0.146,0,0.293,0,0.439,0c0.923-0.413,2.53-0.866,1.905-2.345
			c-0.429,0.255-0.935,0.433-1.172,0.879c-0.072-0.611,1.062-1.281,1.906-1.465C131.473,44.808,131.305,44.781,131.126,44.764z"/>
		<path fill-rule="evenodd" clip-rule="evenodd" fill="#009E47" d="M107.388,46.375c-0.326-0.173-1.959-0.401-2.051,0.146
			c0.405,0.376,0.591,0.971,0.879,1.466C106.775,47.62,106.79,46.706,107.388,46.375z"/>
		<path fill-rule="evenodd" clip-rule="evenodd" fill="#009E47" d="M119.989,47.988c0.138-0.742,0.708-1.05,0.879-1.758
			c-0.638,0.094-1.657-0.192-2.051,0.146C119.39,46.73,119.382,47.667,119.989,47.988z"/>
		<path fill-rule="evenodd" clip-rule="evenodd" fill="#009E47" d="M138.893,47.255c0.979,0.078,1.634-0.389,2.052,0.292
			c0.187-0.643,0.492-1.167,0.585-1.905c-0.293,0-0.585,0-0.879,0c-0.079,0.213,0.171,0.757-0.146,0.732
			c-0.515-0.073-0.954-0.218-1.612-0.146C138.893,46.571,138.893,46.913,138.893,47.255z"/>
		<path fill-rule="evenodd" clip-rule="evenodd" fill="#009E47" d="M138.893,44.91c-0.952-0.122-1.521,0.14-2.198,0.293
			c-0.003,1.071-0.656,1.493-0.879,2.344c0.537,0,1.074,0,1.611,0C138.094,46.847,138.701,46.087,138.893,44.91z"/>
		<path fill-rule="evenodd" clip-rule="evenodd" fill="#009E47" d="M135.376,51.504c0.034,0.258,0.252,0.334,0.586,0.293
			c0.704-0.955,1.426-1.896,1.465-3.516C135.903,48.515,135.257,49.627,135.376,51.504z"/>
		<path fill-rule="evenodd" clip-rule="evenodd" fill="#009E47" d="M173.327,48.867c0.383,0.399,0.522,1.041,0.732,1.612
			c0.302,0.528,0.854,0.805,1.173,1.318c0.712,0.029,1.4,0.034,1.758-0.293c-0.235-1.034-1.287-1.252-1.611-2.198
			c1.418,0.545,2.021,2.655,3.077,3.077c0.006-0.202-0.069-0.322-0.147-0.439c-0.017-0.422-0.624-0.254-0.585-0.732
			c0.534-2.844-2.589-3.998-4.689-2.784C173.218,48.487,173.334,48.616,173.327,48.867z"/>
		<path fill-rule="evenodd" clip-rule="evenodd" fill="#009E47" d="M120.429,51.797c-0.045-0.338,0.423-0.163,0.44-0.439
			c0.048,0,0.098,0,0.146,0c0.367-0.122,0.575-0.401,1.025-0.44c-0.272-0.704-1.2-0.752-1.758-1.172
			C120.468,50.62,120.128,51.125,120.429,51.797z"/>
		<path fill-rule="evenodd" clip-rule="evenodd" fill="#009E47" d="M170.396,50.332c0.659,0.709,0.634,2.102,2.052,2.051
			c0.128-0.878-0.391-0.881-0.732-1.172c-1.91-1.618-3.152-4.088-4.104-6.74c1.183,1.602,2.039,4.31,3.81,4.835
			c0.009-0.09,0.022-0.173,0.146-0.146c2.555-4.676-2.537-6.68-4.688-8.938c-0.442,0.828-0.778,1.762-1.172,2.638
			c-0.54,1.82-0.567,4.234,0.439,5.568C167.12,49.505,168.457,50.22,170.396,50.332z"/>
		<path fill-rule="evenodd" clip-rule="evenodd" fill="#009E47" d="M99.621,49.893c-0.018-0.324-0.621-0.062-0.879-0.147
			c-0.532,1.34-1.798,1.289-3.077,2.051c-1.719,1.026-2.704,4.499-0.879,5.861c1.226,0.916,7.432,0.486,8.353-0.439
			c-0.164-1.747-2.885,0.457-3.81-0.732c1.875,0.215,2.94-0.381,4.396-0.586c0-0.342,0-0.684,0-1.025
			c-1.204-0.457-3.022,1.123-4.25,0.146c2.092-0.107,4.299-0.097,4.689-1.905c-1.597-0.435-2.94,1.329-4.835,0.585
			c1.591-0.387,4.239-0.416,3.956-2.198c-1.287-0.164-1.599,0.649-2.637,0.733c-0.443,0.338-1.512,0.052-2.198,0.146
			C98.735,51.448,99.906,51.398,99.621,49.893z"/>
		<path fill-rule="evenodd" clip-rule="evenodd" fill="#009E47" d="M90.39,55.021c-0.461-0.436,0.002-1.373-0.586-1.905
			c-0.302-0.04-0.138-0.546-0.439-0.586c-0.397,1.448-1.162-0.437-1.905-0.439C88.423,52.983,89.215,54.828,90.39,55.021z"/>
		<path fill-rule="evenodd" clip-rule="evenodd" fill="#009E47" d="M131.42,51.944c-0.22,0.27-0.464,0.514-0.734,0.733
			c-0.124-0.316-0.54-0.34-1.025-0.294c-0.044,0.777,0.92,0.545,1.172,1.026c0.307,1.283-0.317,1.618-0.293,2.93
			c1.151,1.193,0.686,4.003,1.758,5.276c0.098-1.076-0.193-2.539,0.146-3.371c0.277,0.033,0.324-0.165,0.587-0.146
			c0.155,0.938-0.494,1.069-0.293,2.051c0.476,0.11-0.261,1.433,0.439,1.319c0.287-1.082,0.319-2.415,0.879-3.224
			c0.22,0.025,0.541-0.052,0.586,0.146c0.509,0.117,0.563-0.218,1.025-0.146c0.051,0.494,0.371,1.477,0,1.905
			c0.042,0.257-0.412,0.731,0,0.88c1.771-1.209-0.267-6.228,3.225-5.715c-0.131-0.602-0.478-0.987-0.586-1.612
			c-1.159-0.464-2.261-0.269-3.518-0.439c-0.447,0.105-0.533-0.15-0.879-0.146c0.077-0.118,0.152-0.238,0.146-0.439
			c-0.201-0.378-0.896-0.033-1.173,0C132.631,52.198,132.237,51.858,131.42,51.944z"/>
		<path fill-rule="evenodd" clip-rule="evenodd" fill="#009E47" d="M90.39,52.677c0,0.048,0,0.097,0,0.146
			c0.187-0.007,0.203-0.188,0.439-0.146c0.153,0.48,0.07,1.199,0.293,1.611c0.829-0.099,0.527-1.329,1.611-1.172
			c0.035-0.894,0.589-1.268,0.733-2.051c-0.364-0.023-0.454,0.23-0.733,0.292c0.205,0.649,0.033,1.139-0.44,1.465
			c-0.581-0.151-1.291-0.175-1.171-1.026C90.776,51.356,88.949,52.685,90.39,52.677z"/>
		<path fill-rule="evenodd" clip-rule="evenodd" fill="#009E47" d="M81.305,56.047c0-0.049,0-0.098,0-0.147
			c1.172-2.457,5.92-1.052,4.689,2.198c0.033,0.277-0.166,0.324-0.146,0.586c1.02,0.222,2.77,0.615,3.517-0.146
			c0.159-2.797-2.572-2.704-3.077-4.836c-0.429-0.108-0.72-0.354-1.026-0.585c-2.013,0.384-3.171-0.654-5.421-0.439
			c0.025,0.366-0.329,0.354-0.44,0.585C79.47,54.756,80.33,55.458,81.305,56.047z"/>
		<path fill-rule="evenodd" clip-rule="evenodd" fill="#009E47" d="M176.552,56.633c2.132-0.536,1.369-2.758-0.587-2.932
			c-1.305,0.181-1.155-1.09-2.491-0.879c-1.096,0.956-3.21,0.894-3.956,2.198c0.098,1.075,0.854,1.491,1.904,1.612
			c0.083-2.654,4.585-2.616,4.689,0C176.257,56.633,176.404,56.633,176.552,56.633z"/>
		<path fill-rule="evenodd" clip-rule="evenodd" fill="#009E47" d="M107.241,55.314c-0.194-0.733-0.583-1.273-1.025-1.758
			c-0.334,0.447-0.49,1.073-0.879,1.465C105.436,55.654,106.667,55.156,107.241,55.314z"/>
		<path fill-rule="evenodd" clip-rule="evenodd" fill="#009E47" d="M118.817,55.021c0.092,0.547,1.725,0.319,2.051,0.146
			c-0.197-0.097-0.273-0.313-0.293-0.586c-0.426-0.209-0.331-0.939-0.879-1.025C119.534,54.174,119.247,54.668,118.817,55.021z"/>
		<path fill-rule="evenodd" clip-rule="evenodd" fill="#009E47" d="M138.893,55.46c-2.999-0.289-1.448,3.625-1.904,5.569
			c0.619-0.456,0.147-2,0.732-2.491c0.618-0.053,1.144,0.507,0.731,1.025c-0.329-0.061,0.022-0.803-0.439-0.732
			c-0.38,0.507,0.309,1.567-0.146,2.198c0.783,0.195,0.313-0.859,0.44-1.319c0.588,0.244-0.014,1.011,0.293,1.319
			c0.336-0.299,0.053-1.217,0.146-1.759c0.118-0.126,0.4-0.087,0.439-0.293c0.558,0.125,0.793,0.574,0.879,1.172
			c0.315,0.27-0.152,1.325,0.44,1.319c0.338-0.395,0.052-1.414,0.146-2.051c1.68-0.474,1.228-3.265,0.439-4.396
			c0.384,0.042,0.63-0.054,0.587-0.44c-0.721,0.189-1.663-0.18-2.345,0.293c0.137,0.156,0.54,0.046,0.439,0.439
			C139.599,55.483,139.254,55.48,138.893,55.46z"/>
		<path fill-rule="evenodd" clip-rule="evenodd" fill="#009E47" d="M171.716,57.658c0.143,0.004,0.113,0.18,0.146,0.293
			c0.635,1.702,3.723,1.397,3.956-0.439C176.578,54.004,170.794,54.022,171.716,57.658z"/>
		<path fill-rule="evenodd" clip-rule="evenodd" fill="#009E47" d="M85.848,57.805c0.606-3.043-3.315-3.696-4.396-1.758
			C79.489,59.308,85.412,61.101,85.848,57.805z"/>
		<path fill-rule="evenodd" clip-rule="evenodd" fill="#009E47" d="M155.219,59.8C155.101,60.252,155.273,60.508,155.219,59.8
			L155.219,59.8z"/>
		<path fill-rule="evenodd" clip-rule="evenodd" fill="#009E47" d="M150.321,57.512c0.311-0.322,0.429,0.189,0.293,0.146
			c1.698,0.541,4.229-0.797,5.275,0.293c-0.384,0.3-0.455,0.913-0.732,1.319c0.032,0.218,0.051,0.391,0.062,0.529
			c0.02-0.075,0.047-0.155,0.085-0.237c0.342-0.742,1.005-2.217,0.88-1.172c0.445-0.336,0.985-0.577,1.904-0.439
			c-0.076,0.23-0.564,0.785-0.146,1.026c0.031-0.754,0.905-1.435,1.318-1.319c-0.034,0.209-0.24,0.247-0.292,0.44
			c0.179,0.017,0.347,0.044,0.292,0.293c0.853,0.307,0.968-0.88,1.319-0.586c-0.762,0.837-1.764,2.096-1.759,3.224
			c-1.112-0.21-1.599,0.761-2.051,1.465c3.375,0.368,6.269-5.117,2.637-6.447c-2.453,0.167-4.757-0.402-6.74,0.146
			c0.696,0.245,0.167,0.383-0.439,0.44c0.298,0.336,1.217,0.053,1.759,0.146c-0.077,0.961-2.084,1.181-2.784,0.586
			c-0.46,0.069-0.388-0.394-0.732-0.439C150.59,57.396,150.593,57.23,150.321,57.512z"/>
		<path fill-rule="evenodd" clip-rule="evenodd" fill="#009E47" d="M119.697,56.779c-0.009,0.09-0.022,0.173-0.147,0.147
			c0.269,0.904,2.798-0.453,2.637,0.879c-0.799,0.227-2.544-0.493-2.637,0.439c0.464,0.513,2.264-0.31,2.491,0.439
			c-0.459,0.567-2.494-0.443-2.491,0.586c0.239,0.835,2.398-0.25,2.637,0.586c-0.51,0.515-2.364-0.313-2.637,0.439
			c0.864,0.651,2.907,0.122,4.25,0.293c0-0.049,0-0.099,0-0.147c0-1.172,0-2.344,0-3.517
			C122.723,56.585,121.016,56.876,119.697,56.779z"/>
		<path fill-rule="evenodd" clip-rule="evenodd" fill="#009E47" d="M168.053,64.545c-0.052-1.022-0.28-1.868-0.587-2.637
			c-1.466-1.972,0.797-3.549,1.026-5.569c-0.05,0-0.099,0-0.147,0c-0.243,0.294-0.393,0.682-0.879,0.733
			c-1.154-0.653-1.812-1.803-3.077-2.345c-0.175,0.853-1.062,1.768-0.732,2.637c0.048-0.342,0.176-0.605,0.293-0.879
			c0.149-0.535,0.363-1.004,0.586-1.465c0.912,0.749,1.774,1.547,2.638,2.344c-0.044,0.299-0.396,0.288-0.439,0.586
			c-0.976-0.119-1.61-2.074-2.345-1.465c0.434,0.69,0.852,1.395,1.172,2.198c-0.045,0.589-0.689,0.58-0.586,1.319
			c0.149,0.534,0.985,0.383,1.025,1.026c-0.295,0.975-0.657,1.881-1.025,2.783c-0.184-0.06-0.299-0.189-0.293-0.439
			c-0.282,1.428-0.042,3.377-0.44,4.689c0.326,2.85,0.441,5.91,2.492,7.033c2.129-2.023,1.982-7.103,1.904-10.843
			C168.542,64.449,168.325,64.525,168.053,64.545z"/>
		<path fill-rule="evenodd" clip-rule="evenodd" fill="#009E47" d="M108.56,58.538c0.606-0.127,0.86-0.606,1.465-0.733
			c0.037-0.159,0.292-0.1,0.293-0.293c-0.526-0.353-1.231-0.527-1.611-1.026C108.369,56.881,108.654,57.899,108.56,58.538z"/>
		<path fill-rule="evenodd" clip-rule="evenodd" fill="#009E47" d="M112.956,59.71c0.702-0.274,0.685-1.269,1.172-1.758
			c-0.684,0-1.368,0-2.051,0C112.226,58.681,112.751,59.036,112.956,59.71z"/>
		<path fill-rule="evenodd" clip-rule="evenodd" fill="#009E47" d="M79.253,58.098c-1.657,0.003-3.647-0.326-3.517,1.465
			c0.725,0.181,1.321-0.527,1.758-0.146c-0.768,0.453-2.044,0.396-2.93,0.732C76.512,60.707,79.115,60.75,79.253,58.098z"/>
		<path fill-rule="evenodd" clip-rule="evenodd" fill="#009E47" d="M125.705,57.952c0,0.439,0,0.879,0,1.319
			c1.064-0.058,2.385,0.14,3.223-0.147c0-0.292,0-0.585,0-0.879C128.326,57.674,126.761,58.067,125.705,57.952z"/>
		<path fill-rule="evenodd" clip-rule="evenodd" fill="#009E47" d="M146.072,57.952c-2.874,1.1-2.934,8.107,1.025,7.327
			C149.978,64.711,149.535,57.888,146.072,57.952z"/>
		<path fill-rule="evenodd" clip-rule="evenodd" fill="#009E47" d="M103.432,61.176c1.052-0.383,3.12-1.085,2.198-2.492
			c-0.22,0.171-0.358,0.424-0.732,0.439c0.192-0.735,1.312-0.542,1.465-1.318C104.731,58.275,102.83,58.473,103.432,61.176z"/>
		<path fill-rule="evenodd" clip-rule="evenodd" fill="#009E47" d="M148.417,58.831c0.934,1.457,1.174,4.149,0.293,5.86
			C153.71,65.824,151.935,56.474,148.417,58.831z"/>
		<path fill-rule="evenodd" clip-rule="evenodd" fill="#009E47" d="M162.19,65.278c-0.044,0.729,0.023,1.344,0.146,1.904
			c0.262,1.481,0.015-0.563,0-1.024c-0.106-3.405,0.802-6.651,1.026-8.793C162.677,59.707,162.128,62.188,162.19,65.278z"/>
		<path fill-rule="evenodd" clip-rule="evenodd" fill="#009E47" d="M186.661,67.77c0-0.049,0-0.098,0-0.146
			c-3.782,0.273-3.919-5.148-0.88-5.715c1.292-0.24,2.708,0.253,3.224,1.465c0.424-1.719-1.576-2.811-3.224-2.49
			c0.309-0.621,1.084-0.773,1.612-1.173c-1.278-0.205-1.804,0.345-2.49,0.732c0.132-0.821-0.751-0.35-0.733,0
			c-0.269-0.516-1.533-0.806-2.197-0.439c0.623,0.305,1.47,0.385,1.611,1.173c-0.41-0.176-1.011-0.162-1.611-0.146
			C178.138,63.424,181.976,69.908,186.661,67.77z M181.68,62.201c0.642-0.056,0.753,0.418,1.318,0.439
			c-0.083,0.648-0.495,0.969-0.586,1.612c-0.292,0-0.587,0-0.879,0C181.427,63.414,181.688,62.943,181.68,62.201z"/>
		<path fill-rule="evenodd" clip-rule="evenodd" fill="#009E47" d="M80.719,63.666c0,2.102,0,4.201,0,6.301c0.048,0,0.097,0,0.146,0
			c0.813,0.164,1.421,0.533,2.345,0.586c0.103-0.434-0.307-1.381,0.439-1.172c0.385,0.348-0.172,1.639,0.585,1.612
			c0.595,0.057,0.161-0.913,0.294-1.319c0.647-0.377,1.28-0.77,1.758-1.318c0.403-1.6-0.12-4.125,0.292-5.715
			c1.786,1.391-0.094,4.668,0.147,6.301c0.696,0.361,1.507,0.077,1.611-0.586c0.838-2.146,1.035-5.429-0.439-7.034
			c-1.311-1.229-4.253-0.826-6.74-0.879c-1.097,1.835-2.732,3.13-5.422,3.37c0.127,0.811-0.536,0.832-0.586,1.466
			C77.437,65.73,79.321,64.582,80.719,63.666z"/>
		<path fill-rule="evenodd" clip-rule="evenodd" fill="#009E47" d="M176.697,66.158c0.453,0.014,0.437-0.443,0.439-0.88
			c-0.234-0.303-0.864-0.21-0.88-0.733c0.334,0.072,0.749,0.291,1.026,0c-0.167-0.711-0.491-1.267-1.466-1.172
			c-0.214,0.521,0.472,0.878,0.147,1.026c-1.334-0.914-2.438-2.056-3.664-3.078c-0.576-0.546-1.312-0.934-1.758-1.611
			c-0.452-0.182-0.786-0.484-1.025-0.879c-0.173-0.072-0.333-0.157-0.439-0.293c-0.322-0.167-0.487-0.491-0.88-0.586
			c0.144,0.785,0.99,0.866,1.319,1.466c2.327,2.215,5.139,3.946,7.034,6.593C176.676,65.984,176.689,66.068,176.697,66.158z"/>
		<path fill-rule="evenodd" clip-rule="evenodd" fill="#009E47" d="M114.861,63.666c1.728-0.201,3.887-0.014,3.516-2.637
			c-1.244,0.221-2.846,0.084-2.637,1.758c0.49,0.138,0.923-0.525,1.172-0.146C116.38,63.135,115.242,63.021,114.861,63.666z"/>
		<path fill-rule="evenodd" clip-rule="evenodd" fill="#009E47" d="M176.257,65.864c-0.215-0.71-2.038-2.136-2.93-2.931
			c-1.347-1.199-2.792-2.987-4.835-2.784c-0.09-0.008-0.174-0.021-0.147-0.146c-0.447,0.106-0.431-0.252-0.879-0.146
			c-0.118,0.027-0.146,0.147-0.293,0.146c-0.012,0.696,0.074,1.294,0.586,1.466c0.34-0.047,0.562,0.023,0.733,0.146
			c1.003,0.027,1.961,0.008,2.784-0.146c0,4.786,0,9.572,0,14.359c0,0.098,0,0.195,0,0.293c0.519,0.732,1.996,0.748,2.197-0.293
			c0.045-1.947-0.061-4.455,0-6.301c0.017-0.529-0.354-1.67,0.439-1.758c0.342,2.344,0.049,5.323,0.146,7.912
			c-0.125,0.468,0.231,0.453,0.293,0.732c0.634,0.471,1.634,0.234,1.904-0.439C175.613,72.771,177.115,68.694,176.257,65.864z"/>
		<path fill-rule="evenodd" clip-rule="evenodd" fill="#009E47" d="M104.311,67.916c-0.437,0.736-1.299,1.047-1.758,1.758
			c0,0.244,0,0.488,0,0.732c1.219-0.029,1.334-1.343,1.905-2.051c1.361-1.693,3.312-2.835,5.275-3.956
			c-1.473,1.507-3.655,2.304-4.396,4.542c5.236,2.092,6.472-3.176,8.352-5.861C109.548,61.424,103.36,62.246,104.311,67.916z"/>
		<path fill-rule="evenodd" clip-rule="evenodd" fill="#009E47" d="M171.129,59.857c0.197,0.681,0.918,0.839,1.319,1.319
			c1.051,0.804,1.896,1.816,3.076,2.49c0.329-0.551,0.875-0.883,0.88-1.758c1.375,0.746,1.474,3.615,0.439,4.835
			c-0.091,0.63,0.131,0.944,0.439,1.173c0.664-0.117,1.648,0.085,1.905-0.439c0.568-0.531-0.461-0.703-0.293-1.318
			C180.001,61.018,176.26,58.762,171.129,59.857z"/>
		<path fill-rule="evenodd" clip-rule="evenodd" fill="#009E47" d="M72.807,65.131c0.623-0.219,0.722-2.323-0.147-2.344
			C72.013,63.03,71.988,65.061,72.807,65.131z"/>
		<path fill-rule="evenodd" clip-rule="evenodd" fill="#009E47" d="M157.501,66.743c0-0.048,0-0.098,0-0.146
			c0.284-1.231,1.991-1.039,3.517-1.026c0-0.587,0-1.172,0-1.759c-3.252-0.225-5.433,0.623-5.421,3.664c0.537,0,1.075,0,1.612,0
			C157.273,67.199,157.009,66.594,157.501,66.743z"/>
		<path fill-rule="evenodd" clip-rule="evenodd" fill="#009E47" d="M187.541,64.691c-0.293,0-0.586,0-0.88,0
			c-0.182,0.475,0.474,0.112,0.294,0.587c-0.245,0-0.489,0-0.734,0c-0.132-0.376-0.236-0.831,0.147-1.025
			c0.455-0.05,0.701,0.339,1.025,0c-0.711-1.672-2.892,0.509-1.465,1.465c0.566,0.028,1.079,0.005,1.465-0.146
			C187.288,65.123,187.646,65.141,187.541,64.691z"/>
		<path fill-rule="evenodd" clip-rule="evenodd" fill="#009E47" d="M75.444,63.812c-0.833-0.166-1.89,0.627-1.905,1.759
			C74.796,65.607,75.242,64.832,75.444,63.812z"/>
		<path fill-rule="evenodd" clip-rule="evenodd" fill="#009E47" d="M71.928,65.571c-0.122-1.052-0.625-1.72-1.759-1.759
			C70.047,64.555,70.691,65.707,71.928,65.571z"/>
		<path fill-rule="evenodd" clip-rule="evenodd" fill="#009E47" d="M151.201,66.598c0.907-0.321,1.411-0.146,2.637-0.146
			c0.432-0.693,0.889-1.359,0.879-2.491c-1.303,0.259-2.896,0.229-2.784,1.904c0.509-0.077,0.781-0.392,1.319-0.439
			C152.985,66.232,151.569,65.891,151.201,66.598z"/>
		<path fill-rule="evenodd" clip-rule="evenodd" fill="#009E47" d="M189.152,65.278c0.538-4.048-4.952-4.031-5.275-0.879
			c-0.178,1.741,1.207,3.485,3.664,2.783c2.049,0.345,1.866,2.921,4.248,2.931c0.291-2.123-2.29-2.574-2.929-4.249
			C189.258,65.969,188.755,65.174,189.152,65.278z M187.248,66.598c-2.109,0.59-3.555-1.803-1.905-3.225
			C187.794,61.26,189.672,65.917,187.248,66.598z"/>
		<path fill-rule="evenodd" clip-rule="evenodd" fill="#009E47" d="M71.928,66.598c0.164,0.651,1.315,0.805,1.611,0.146
			C73.872,65.346,71.804,65.469,71.928,66.598z"/>
		<path fill-rule="evenodd" clip-rule="evenodd" fill="#009E47" d="M71.487,66.451c-0.008-0.188-0.188-0.204-0.146-0.44
			c-0.755,0.124-2.089-0.331-2.198,0.44C69.247,67.156,71.36,67.067,71.487,66.451z"/>
		<path fill-rule="evenodd" clip-rule="evenodd" fill="#009E47" d="M73.979,66.598c0.481,0.423,2.01,0.423,2.49,0
			C76.368,65.589,74.08,65.589,73.979,66.598z"/>
		<path fill-rule="evenodd" clip-rule="evenodd" fill="#009E47" d="M70.168,69.088c1.065-0.156,1.765-0.678,1.759-1.905
			C70.961,67.438,70.08,67.778,70.168,69.088z"/>
		<path fill-rule="evenodd" clip-rule="evenodd" fill="#009E47" d="M75.444,69.088c-0.197-1.073-0.76-1.779-1.905-1.905
			C73.599,68.394,74.233,69.029,75.444,69.088z"/>
		<path fill-rule="evenodd" clip-rule="evenodd" fill="#009E47" d="M179.188,72.165c1.733,0.122,2.698-0.525,3.956-0.88
			c-1.419,1.072-3.334,1.648-5.861,1.613c-0.17,0.217-0.17,0.368,0,0.586c0.244,0,0.489,0,0.733,0
			c0.434-0.104,0.638-0.438,1.319-0.293c3.227,2.486,6.534-0.83,6.739-4.104C182.662,68.996,179.021,68.676,179.188,72.165z"/>
		<path fill-rule="evenodd" clip-rule="evenodd" fill="#009E47" d="M72.807,67.623c-0.745,0.186-0.827,2.158-0.147,2.49
			C73.469,70.051,73.489,67.854,72.807,67.623z"/>
		<path fill-rule="evenodd" clip-rule="evenodd" fill="#009E47" d="M88.631,68.795c-0.492-0.15-0.228,0.455-0.293,0.732
			c-0.635,0-1.27,0-1.905,0c0.133-0.429,0.133-0.45,0-0.879c-0.617,0.164-0.388,1.175-1.464,0.879
			c-0.338,0.396,0.14,1.606-0.439,1.758c-1.387-0.419-2.996-0.619-4.103-1.318c-0.62-0.356-1.154-0.8-1.613-1.318
			c-0.773,0.301-0.861,1.287-1.025,2.197c3.108-0.33,4.835,1.875,6.887,3.077c0,0.392,0,0.782,0,1.173
			c1.576,0.243,4.139,0.243,5.715,0c-0.02-0.361-0.022-0.705,0.146-0.879c1.192-0.482,2.236-1.682,1.758-3.371
			c-0.325-0.31-0.364-0.904-1.025-0.879C90.622,69.346,88.894,69.803,88.631,68.795z M90.097,70.406c0.196,0,0.391,0,0.586,0
			c0,0.049,0,0.099,0,0.146c2.046,0.319,0.552,2.78-0.439,3.078C90.21,72.54,90.008,71.619,90.097,70.406z"/>
		<path fill-rule="evenodd" clip-rule="evenodd" fill="#009E47" d="M77.202,69.381c-0.995,0.485-1.841,1.852-1.465,3.224
			C76.938,72.243,77.104,70.846,77.202,69.381z"/>
		<path fill-rule="evenodd" clip-rule="evenodd" fill="#009E47" d="M154.864,70.993c-0.993-0.032-1.315-0.735-2.198-0.88
			c-0.408,0.219,0.31,0.655-0.293,0.587c-0.106-0.448,0.149-0.534,0.146-0.879c-0.4-0.058-0.625-0.677-1.026-0.294
			c0.229,1.043,1.223,1.317,1.612,2.197c1.197,1.147,3.597,1.093,4.982,2.053c0.274,0.279-0.087,0.265,0,0.732
			c1.026-0.048,1.458-0.691,2.198-1.025c-0.655-0.811-0.991-1.94-1.758-2.639c-1.206,0.131-1.976-0.173-2.784-0.439
			C155.38,70.443,155.443,71.656,154.864,70.993z"/>
		<path fill-rule="evenodd" clip-rule="evenodd" fill="#009E47" d="M74.271,73.044c-0.11-1.501-1.877-1.347-3.37-1.465
			C71.483,72.607,72.659,73.045,74.271,73.044z"/>
		<path fill-rule="evenodd" clip-rule="evenodd" fill="#009E47" d="M82.624,79.345c0.132-0.258,0.328-0.454,0.586-0.585
			c0-1.857,0-3.713,0-5.568c-0.916-0.404-1.48-1.158-2.491-1.467C81.326,74.293,79.156,79.639,82.624,79.345z"/>
		<path fill-rule="evenodd" clip-rule="evenodd" fill="#009E47" d="M67.971,72.898c-0.338,0.252-0.918,1.027-1.172,0.879
			c0.483-0.787,1.354-1.186,1.905-1.905c-0.578-0.04-0.448,0.626-1.026,0.587c-2.123-0.258-2.68,2.164-1.758,3.662
			C66.763,75.316,69.109,74.743,67.971,72.898z"/>
		<path fill-rule="evenodd" clip-rule="evenodd" fill="#009E47" d="M103.871,72.604c-3.039,0.062-7.025-0.528-6.887,3.077
			c1.914,0.107,2.976-0.639,4.396-1.025c-1.448,1.482-4.546,1.314-6.594,2.198c0.729,0.528,1.381-0.276,2.198-0.147
			C100.352,79.146,103.636,75.99,103.871,72.604z"/>
		<path fill-rule="evenodd" clip-rule="evenodd" fill="#009E47" d="M72.367,74.51c0.398,1.457,0.881,2.83,1.025,4.543
			c0.879,0,1.758,0,2.637,0c0.197-0.098,0.273-0.314,0.294-0.587c0.048,0,0.098,0,0.146,0c-0.046-1.608,0.424-2.702,0.879-3.81
			c-0.206-0.576-1.39-0.174-2.051-0.293c-0.009-2.189-0.278-4.117-1.466-5.129c0.328,1.676,1.012,2.994,0.879,5.129
			C73.951,74.434,72.893,74.205,72.367,74.51z"/>
		<path fill-rule="evenodd" clip-rule="evenodd" fill="#009E47" d="M84.382,79.345c0.497-0.04,1.188,0.114,1.465-0.146
			c0.872-0.546,0.521-2.312,0.585-3.664c-0.715-0.016-1.543,0.08-2.051-0.146c0-0.781,0.165-1.729-0.586-1.758
			C83.967,75.56,83.336,78.291,84.382,79.345z"/>
		<path fill-rule="evenodd" clip-rule="evenodd" fill="#009E47" d="M170.689,75.975c-0.098,0-0.195,0-0.293,0
			c-1.626,0.377-3.989,0.016-3.663,2.346c0.91,0.031,1.271-0.488,2.051-0.587c-0.635,0.978-2.357,0.864-3.37,1.466
			c1.765,0.055,5.021,0.607,5.129-2.053C170.439,76.604,170.794,76.518,170.689,75.975z"/>
		<path fill-rule="evenodd" clip-rule="evenodd" fill="#009E47" d="M159.26,76.854c0.255,1.406,2.193,1.908,2.492,2.784
			c-2.037-0.847-3.016-2.748-4.69-3.957c-0.108,1.233,1.093,1.154,1.467,1.904c-0.718,4.352,4.488,4.836,7.18,3.225
			C164.043,79.199,163.006,74.959,159.26,76.854z"/>
		<path fill-rule="evenodd" clip-rule="evenodd" fill="#009E47" d="M66.505,79.345c0,0.245,0,0.489,0,0.733c0.538,0,1.075,0,1.612,0
			c0.007-1.703,1.695-1.725,3.517-1.612c-0.054-0.58,0.135-1.404-0.146-1.759C68.659,76.418,67.084,77.385,66.505,79.345z"/>
		<path fill-rule="evenodd" clip-rule="evenodd" fill="#009E47" d="M77.935,82.423c1.114-0.111,1.683-1.272,1.905-2.638
			c-0.195,0-0.391,0-0.586,0c-1.62-0.155-2.787,0.145-2.93,1.465c0.535,0.334,1.361-0.295,2.051-0.293
			c-0.499,0.869-2.333,0.402-3.077,1.025C76.285,81.471,77.076,82.508,77.935,82.423z"/>
		<path fill-rule="evenodd" clip-rule="evenodd" fill="#009E47" d="M71.634,84.474c0.381-0.058,0.442-0.438,0.879-0.439
			c0.621-0.356,1.202-0.751,1.612-1.319c0-0.488,0-0.977,0-1.465c-0.691,0.237-1.019,0.838-1.466,1.318
			c-0.136-0.919,1.343-1.488,1.905-2.197c-0.559-0.357-0.685,0.973-1.758,0.586c-0.713,0.166-1.153,0.605-1.319,1.318
			C71.512,83.033,71.396,83.93,71.634,84.474z"/>
		<path fill-rule="evenodd" clip-rule="evenodd" fill="#009E47" d="M81.159,85.5c0.967,1.188,2.932,0.912,3.224-0.439
			c0.322-1.492-1.053-3.043-1.612-3.957C82.186,82.521,80.94,83.277,81.159,85.5z"/>
		<path fill-rule="evenodd" clip-rule="evenodd" fill="#009E47" d="M68.557,85.5c0.43,0.4,0.275,0.723,0.439,1.172
			c0.741-0.236,1.28-0.674,1.905-1.025c-0.996-0.713-0.662-2.758-2.638-2.492c-0.552,0.496-0.946-0.414-1.611-0.293
			c-0.463-0.071-0.054,0.729-0.586,0.586c-1.379-0.232-2.017-1.205-3.223-1.611C63.408,83.816,65.69,85.334,68.557,85.5z"/>
		<path fill-rule="evenodd" clip-rule="evenodd" fill="#009E47" d="M95.812,88.576c-0.21,0.475-0.264,1.105-0.586,1.467
			c-0.261-2.28-1.183-3.898-1.026-6.596c1.275-1.365,0.551-4.115-0.439-5.274c-0.467,2.552,0.587,4.564,0,6.448
			c0.013-3.336-2.211-4.432-4.835-5.13c0.307,1.257,1.008,2.118,1.465,3.224c0.938,0.723,1.617,1.705,3.224,1.759
			c0.632,1.761,1.063,3.724,1.464,5.714c-0.691-0.188-0.704-1.054-1.171-1.465c-0.073-2.857-1.613-4.248-4.542-4.249
			c0,0.049,0,0.099,0,0.147c-0.841,0.282-1.839,0.408-2.198,1.172c0.257,0.084,0.86-0.178,0.878,0.146
			c0.896,0.178,1.265,0.885,1.905,1.318c0,0.049,0,0.098,0,0.146c0.976,0.837,1.991,2.232,3.957,1.612
			c0.62,0.942,1.136,1.989,1.611,3.077c-0.226-1.072,0.142-2.361,0.439-3.664c1.525-0.186,2.149-1.27,2.491-2.637
			c-0.123-1.883,0.103-4.194,0.293-5.275C96.223,81.501,93.517,85.529,95.812,88.576z"/>
		<path fill-rule="evenodd" clip-rule="evenodd" fill="#009E47" d="M82.038,92.094c1.518,0.318,3.66-0.828,5.422-0.439
			c0.79,0.174,0.991,0.785,1.905,1.025c0.814-0.651,1.768-1.162,2.051-2.345c-1.021-0.443-1.718-1.212-2.491-1.905
			c-0.86-0.654-1.818-1.21-3.517-1.025c-1.741,1.015-5.547-0.885-6.595,0.879c1.156,1.434,5.095,0.084,6.155,1.611
			c-1.979-0.795-6.554,0.183-6.448-2.197c0.154-0.383,0.595-0.479,1.172-0.439c-0.771-1.289-2.429-2.443-4.249-2.197
			c0.417,1.59,1.608,2.779,2.784,3.956C79.049,89.838,80.804,91.834,82.038,92.094z"/>
		<path fill-rule="evenodd" clip-rule="evenodd" fill="#009E47" d="M60.058,95.463c1.047,0.428,2.332-0.085,3.37-0.146
			c-1.959-3.094,2.653-6.144,4.689-3.516c0.042,0.299,0.396,0.287,0.44,0.586c1.067-0.74,2.133-1.481,2.051-3.37
			c-1.369-0.882-3.745-0.271-4.982,0.292c-0.452-0.43-1.83-0.291-2.491,0.294c-0.309,0.272-0.267,0.905-0.732,1.466
			C61.497,92.154,57.83,93.929,60.058,95.463z"/>
		<path fill-rule="evenodd" clip-rule="evenodd" fill="#009E47" d="M63.282,94.438c0.444,2.13,4.35,2.625,5.275,0.293
			c0.304-1.046,0.008-1.952-0.44-2.637C66.101,89.723,62.717,91.73,63.282,94.438z"/>
		<path fill-rule="evenodd" clip-rule="evenodd" fill="#009E47" d="M78.667,97.809c-0.15-2.195-1.986-3.483-2.49-4.836
			c1.353,1.432,2.694,2.873,3.371,4.982c0.093,0.982,1.461,2.904,1.025,0.732c-1.224-0.762-0.375-1.971-0.293-2.931
			c0.33-3.844-3.022-4.959-7.18-4.835c0.915,1.43,0.769,3.919,1.611,5.421C75.417,97.377,76.953,98.26,78.667,97.809z"/>
		<path fill-rule="evenodd" clip-rule="evenodd" fill="#009E47" d="M90.83,94.585c-0.22,0.317-0.733,0.341-0.733,0.878
			c0.451-0.109,0.282,0.403,0.733,0.294c0.733,0,1.465,0,2.198,0C92.911,94.82,91.882,94.105,90.83,94.585z"/>
		<path fill-rule="evenodd" clip-rule="evenodd" fill="#009E47" d="M90.39,95.757c-1.046-0.069-1.867,0.087-1.905,1.026
			c0.831,0,1.66,0,2.491,0C91.043,96.178,90.451,96.232,90.39,95.757z"/>
		<path fill-rule="evenodd" clip-rule="evenodd" fill="#009E47" d="M92.881,96.196c-0.537,0-1.074,0-1.611,0
			c0.319,1.536,0.064,3.647,0.146,5.422c0.586,0,1.172,0,1.758,0C92.985,99.902,93.556,97.426,92.881,96.196z"/>
		<path fill-rule="evenodd" clip-rule="evenodd" fill="#009E47" d="M89.071,99.273c0.158-1.574-2.249-1.853-3.223-2.783
			c-0.888,1.064-2.785,1.122-3.224,2.637c0.985,0.039,0.458,1.594,0.586,2.491c0.488,0,0.977,0,1.465,0c0-0.537,0-1.075,0-1.612
			c0.391,0,0.782,0,1.172,0c0.011,0.719-0.097,1.553,0.146,1.466c0.209-0.075-0.459-2.212,1.025-1.466c0,0.537,0,1.075,0,1.612
			c0.538,0,1.075,0,1.612,0C88.845,100.903,88.157,99.287,89.071,99.273z"/>
		<path fill-rule="evenodd" clip-rule="evenodd" fill="#009E47" d="M90.976,97.223c-0.831,0-1.66,0-2.491,0
			c0.074,1.098,1.64,0.703,1.172,2.344c-0.195,0-0.391,0-0.586,0c0,0.684,0,1.367,0,2.052c0.635,0,1.27,0,1.905,0
			C90.976,100.152,90.976,98.688,90.976,97.223z"/>
		<path fill-rule="evenodd" clip-rule="evenodd" fill="#009E47" d="M156.916,100.006c0.07-0.173,0.156-0.332,0.293-0.439
			c0.24-1.853-1.044-2.18-1.905-2.931c-1.043,0.715-2.385,1.132-2.344,2.931c-0.147-0.585-0.625-0.841-0.88-1.318
			c-0.853-0.076-2.021,0.164-2.638-0.146c-0.038,2.91,2.987,3.314,3.518,5.568c0.192,0.816-0.447,1.617,0.585,2.197
			c2.447-2.943,4.349,1.59,7.473,0.586c-0.018-0.979-0.612-2.596-1.758-2.93c-0.849-0.162-1.909,0.232-2.198,0.146
			c0.416-1.284-0.312-2.066-0.439-3.225c-1.339-0.115-3.171,0.051-3.517,0.439c0-0.391,0-0.781,0-1.172
			C154.17,100.016,155.649,98.726,156.916,100.006z"/>
		<path fill-rule="evenodd" clip-rule="evenodd" fill="#009E47" d="M174.353,106.307c0.169-2.904-0.104-5.366-0.879-7.326
			c-2.261-1.203-4.664-1.316-6.888,0c-0.889,1.895-0.992,4.575-0.878,7.473c0.686-0.094,1.755,0.191,2.197-0.146
			c0-1.221,0-2.441,0-3.663c1.417,0.097,3.223-0.194,4.396,0.147c0,1.172,0,2.344,0,3.516
			C172.984,106.307,173.669,106.307,174.353,106.307z M170.689,100.592c-0.277,0.26-0.968,0.107-1.465,0.146
			c0-0.537,0-1.074,0-1.611c0.487,0,0.977,0,1.465,0C170.689,99.615,170.689,100.104,170.689,100.592z"/>
		<path fill-rule="evenodd" clip-rule="evenodd" fill="#009E47" d="M131.712,99.859c-0.025,0.902-0.403,1.453-0.292,2.492
			c1.398-0.174,2.507,0.277,3.517,0.146c1.666-0.218,2.15-1.578,3.37-2.198c0.006,0.775-0.091,1.654,0.439,1.905
			c0.048,0,0.098,0,0.146,0c0.051-0.557-0.1-2,0.586-2.345c-0.285-0.873,1.706-0.734,1.611-1.904
			c-2.059-0.486-3.172,1.997-4.981,1.758c1.566-0.572,3.484-2.839,5.275-1.758c0.253,0.559-0.837,0.963-0.147,1.025
			c1.102,0.514,2.727,0.185,3.371-0.586c-1.676-1.401-4.628-1.527-7.619-1.611C135.404,97.982,134.511,99.874,131.712,99.859z"/>
		<path fill-rule="evenodd" clip-rule="evenodd" fill="#009E47" d="M174.353,98.102c-0.462,0.071-0.518-0.264-1.025-0.146
			c-2.968-2.283-9.233-0.449-8.206,3.663c0.64-0.242,0.65-2.378,1.319-3.077c2.271-0.952,4.393-1.457,6.594-0.146
			c1.863,0.041,0.531,3.277,2.345,3.37C175.074,100.507,174.611,99.406,174.353,98.102z"/>
		<path fill-rule="evenodd" clip-rule="evenodd" fill="#009E47" d="M139.479,101.472c0.724,0.597,2.173,0.245,2.638-0.294
			c0.293-0.242,0.681-0.393,0.732-0.879c-0.808-0.242-1.673-0.959-2.638-0.586c-0.34,0.295-0.736,0.533-0.879,1.025
			c0.515-0.029,1.279-0.568,1.758-0.146C140.497,100.83,139.727,100.891,139.479,101.472z"/>
		<path fill-rule="evenodd" clip-rule="evenodd" fill="#009E47" d="M190.178,98.102c-1.775,0.939-3.832,0.752-3.517,2.49
			c0.151,0.827,1.054,0.918,1.905,1.319c0.146,0,0.294,0,0.438,0c-0.258-2.481,4.032-3.509,4.69-1.612
			c-1.652-1.594-5-0.395-4.396,2.492c-0.034,0.276,0.165,0.322,0.146,0.585c0.589,1.594,3.994,1.809,4.689,0.147
			c0.638-0.889,0.16-2.527-0.293-3.225c0.543,0.238,0.621,0.941,0.879,1.466c0.988-0.517,2.044-0.605,2.198-1.466
			c0.403-2.247-2.703-1.662-3.956-2.344c-0.397-0.217-0.354-0.807-0.879-0.88C190.852,96.906,190.724,97.812,190.178,98.102z"/>
		<path fill-rule="evenodd" clip-rule="evenodd" fill="#009E47" d="M157.501,99.859c-0.69,0.609,0.306,1.238,0.733,1.612
			c-0.166,0.47-0.298,0.972-0.293,1.611c0.564,0.021,1.286-0.114,1.465,0.293c0.509-0.117,0.564,0.218,1.026,0.147
			c0.716-0.7,1.024-1.808,1.024-3.225C159.962,100.312,158.936,99.031,157.501,99.859z"/>
		<path fill-rule="evenodd" clip-rule="evenodd" fill="#009E47" d="M79.986,102.791c-0.319-0.854-0.779-1.566-1.465-2.053
			c-1.197-0.316-2.818-0.209-3.956-0.586c-0.012,3.062,2.014,5.688,5.128,4.25c0.633,0.014,1.101,0.769,1.758,0.293
			c-1.357-0.889-3.535-0.958-4.542-2.198c1.06,0.308,1.679,1.057,3.078,1.026C79.986,103.279,79.986,103.035,79.986,102.791z"/>
		<path fill-rule="evenodd" clip-rule="evenodd" fill="#009E47" d="M200.143,101.178c-1.246,0.041-3.526,0.556-2.491,1.905
			c0.321-0.032,0.789-0.661,1.025-0.292c-0.573,0.5-1.679,0.471-2.197,1.025C198.319,103.83,200.281,103.801,200.143,101.178z"/>
		<path fill-rule="evenodd" clip-rule="evenodd" fill="#009E47" d="M136.694,102.497c-1.97,0.333-2.279,2.985-1.318,4.689
			c2.703,0.429,4.87-1.09,6.887,0c1-1.177,0.946-3.716-0.44-4.396C140.608,102.198,138.372,102.627,136.694,102.497z"/>
		<path fill-rule="evenodd" clip-rule="evenodd" fill="#009E47" d="M86.58,104.549c-2.218,0.517-5.545-0.075-5.129,3.077
			c1.586,0.121,2.103-0.829,3.371-1.026c-1.201,1.241-3.571,1.314-5.129,2.198c0.777,0.44,1.031-0.399,1.905-0.293
			c0.761,0.462,2.1,0.874,3.078,0.293C86.012,108.18,86.848,106.283,86.58,104.549z"/>
		<path fill-rule="evenodd" clip-rule="evenodd" fill="#009E47" d="M195.16,105.574c-1.781-0.299-4.217-0.162-5.86,0.146
			c-0.524,0.416-0.825,1.045-1.467,1.466c-0.671,0.439-1.68,0.507-2.052,0.879c-2.215-1.401-5.32-2.521-6.74-4.249
			c-0.868,0.055-1.319,0.99-1.024,1.758c-1.039,1.648-2.041,3.333-2.784,5.275c1.385-1.447,2.162-3.503,3.369-5.129
			c1.202,0.508,2.322,1.098,3.371,1.758c0,0.244,0,0.488,0,0.734c1.121,0.55,2.451,1.635,3.956,1.318
			c0.989,0.524,2.081,0.947,2.932,1.611c1.153,0.473,2.475,1.127,3.663,1.758c1.146,0.609,2.309,1.689,3.369,1.467
			c0.217-0.029,0.135-0.355,0.147-0.588c-0.273-0.02-0.49-0.096-0.587-0.293c-3.12-1.715-6.849-3.603-9.378-5.421
			c0.994,0.325,1.726,1.466,2.93,0.732c0.002,0.39-0.055,0.837,0.147,1.026c2.172,1.004,4.081,2.268,6.154,3.371
			c0.095-1.758-0.442-3.66,0-5.277c0.114,0.033,0.17,0.124,0.146,0.295c0.954,0.88,1.233,3.123,0.879,4.834
			c-0.008,0.676-0.067,1.301-0.292,1.76c-0.119,0.752,0.118,1.15,0.439,1.465c0.341,0,0.684,0,1.024,0
			C198.871,112.717,198.556,106.561,195.16,105.574z"/>
		<path fill-rule="evenodd" clip-rule="evenodd" fill="#009E47" d="M62.696,107.039c0,3.029,0,6.057,0,9.086
			c0,0.195,0,0.391,0,0.586c0.287,2.238,3.631,1.287,2.93-1.172c-0.707-0.676-1.301-1.641-1.465-2.932
			c-0.109-0.857,0.345-1.82-0.439-2.197c0.008-0.252-0.113-0.376-0.294-0.439c-0.16-0.527-0.301-1.842,0-2.345
			c-0.647,1.496,0.808,2.427,1.026,3.517c0.097,0.486-0.217,1.08-0.147,1.611c0.173,1.314,0.854,2.084,1.905,2.785
			c0.009,0.676-0.064,1.432,0.147,1.904c0.333,0.201,0.55-0.377,0.585,0c-0.035,0.406-0.826,0.053-0.733,0.586
			c0.608,0.168,0.572-0.307,1.026-0.293c0.135,0.354,0.379,0.598,0.732,0.732c0.194-0.367-0.579-0.459-0.147-0.586
			c0.392-0.084,0.916,0.434,1.173,0c-0.257-0.135-0.731-0.051-0.879-0.293c0.941,0.158,0.899-0.664,0.879-1.465
			c-0.33-0.375-1.168,0.514-1.465,0.146c0.436-0.15,0.815-0.357,1.318-0.439c0.541,0.191,0.574,0.891,0.733,1.465
			c-0.273,0.02-0.49,0.096-0.586,0.293c0.91-0.303,0.764,0.256,1.465,0.439c-0.087-0.576,0.434-0.543,0.585-0.879
			c-0.447-0.105-0.534,0.15-0.879,0.146c-0.371-0.635-0.959-1.738-0.146-2.346c1.062,0.086,1.458-0.494,2.198-0.732
			c1.079-0.742,1.847-2.457,1.172-4.103c-0.178-0.507-0.396-0.97-0.293-1.758c0.192-0.149,0.54-0.144,0.732-0.293
			c-0.267-0.709-0.007-0.743,0.294-1.172c-0.432-0.058-0.336-0.642-0.586-0.88c-0.922-0.141-1.277,0.287-1.758,0.586
			c-0.823,0.74-0.592,2.535-1.905,2.785c-2.028,0.512-4.034-1.045-4.103-2.491c0.701-0.214,0.364,0.612,0.439,1.024
			c1.069,0.3,1.27,1.467,2.785,1.32c0.097-2.541-0.195-5.471,0.147-7.767c0-0.343,0-0.685,0-1.026
			c0.214,0.127,0.464,0.219,0.439,0.586c0.792,1.113,0.547,3.263,0.585,5.129c0.403,0.371,0.808,0.514,1.465,0.293
			c1.475-3.215-0.192-7.493-2.345-8.938c-1.242-1.015-4.55-0.544-6.447-0.439c-3.643,0.944-3.874,7.44-2.344,10.99
			c0.048,0,0.097,0,0.146,0c0.816,0.132,1.235-0.134,1.466-0.587c-0.433-2.285-1.34-6.583,0.586-7.912c0,0.488,0,0.977,0,1.465
			C62.696,103.035,62.696,105.037,62.696,107.039z"/>
		<path fill-rule="evenodd" clip-rule="evenodd" fill="#009E47" d="M142.995,111.289c0.671-0.55,1.312-1.131,1.612-2.051
			c-1.389-0.367-2.263-2.127-4.25-2.199c-0.668-0.023-1.432,0.363-2.197,0.439c-1.356,0.136-3.415-0.582-3.957,0.734
			c1.006,1.045,4.35-0.247,5.129,1.025c-1.662-0.536-4.653,0.258-5.422-1.173c-0.177-0.812,0.72-0.55,0.879-1.026
			c-0.841-0.639-2.038-1.652-3.369-1.318c0.929,2.44,3.148,3.592,4.981,5.129c0.09,0.203,0.563,0.021,0.587,0.293
			C138.821,110.789,141.588,109.982,142.995,111.289z"/>
		<path fill-rule="evenodd" clip-rule="evenodd" fill="#009E47" d="M151.348,112.168c0.758-3.664-0.979-6.037-3.811-6.594
			c-0.878,0.045-2.017-0.421-2.784,0c1.496,0.206,1.793,1.785,2.492,2.639c1.072,1.309,2.401,1.174,3.956,2.344
			C151.294,111.049,151.013,111.918,151.348,112.168z"/>
		<path fill-rule="evenodd" clip-rule="evenodd" fill="#009E47" d="M165.561,113.34c0.34-0.539,0.051-1.707,0.147-2.49
			c0.715,0.812,0.215,2.033,0,3.076c-0.038,0.479,0.174,0.705,0.586,0.732c-0.404-0.523-0.364-1.52,0.292-1.758
			c0.105,0.58,0.244,1.125,0.587,1.467c0.624-0.059-0.419-0.67-0.147-1.32c0.565-0.336,1.812-0.299,2.932-0.586
			c0.037,0.646,0.233,1.135,0.146,1.906c0.273,0.117,0.537,0.244,0.879,0.291c-0.916-1.705,0.901-2.928,1.466-4.102
			c0.488,0,0.977,0,1.465,0c0.042-0.613-1.139-0.781-0.293-1.318c-0.947-0.574-1.786,0.416-2.783,0.586
			c-1.458,0.246-3.121-0.184-4.837,0c-0.043,0.299-0.396,0.287-0.439,0.586C165.753,111.483,165.237,112.623,165.561,113.34z"/>
		<path fill-rule="evenodd" clip-rule="evenodd" fill="#009E47" d="M95.079,112.168c-0.051-1.594-2.13-1.271-3.956-2.197
			c-0.675-0.344-1.06-1.35-2.198-0.879c-0.687,1.121-2.44,1.174-3.81,1.611c-0.311,0.226-0.545,0.529-0.879,0.732
			c-0.793,1.51,0.843,2.512,2.345,2.639c-0.018-0.654,0.361-0.91,0.439-1.467c1.816-2.393,5.356-0.83,5.861,1.467
			C93.991,113.656,95.115,113.275,95.079,112.168z"/>
		<path fill-rule="evenodd" clip-rule="evenodd" fill="#009E47" d="M153.838,109.824c3.244,0.598,6.14,0.154,7.619-1.759
			c-2.231,0.245-3.988-1.37-5.86-1.026c-1.585,0.291-1.334,1.976-2.637,2.785c-0.206-0.824-0.512-2.319-0.147-3.225
			c-0.03-0.458,0.099-1.074-0.146-1.318c-0.494,0.434-0.664,1.191-0.733,2.052c-0.998-1.108,0.032-2.183-0.146-3.224
			c-0.271-1.596-2.449-2.21-3.517-3.225c-0.693-0.43-0.982-1.264-1.466-1.904c-0.242,2.44,0.863,3.533,1.612,4.982
			c1.997,1.663,4.393,4.334,3.224,8.205c0.105,0.449-0.15,0.535-0.147,0.879C153.016,112.713,152.442,110.283,153.838,109.824z"/>
		<path fill-rule="evenodd" clip-rule="evenodd" fill="#009E47" d="M154.425,120.814c0.843-0.143,1.561,0.377,2.197,0.439
			c5.176,0.496,7.026-4.539,6.594-10.111c-3.443,1.746-10.928,1.463-9.378,8.205c2.58-0.498,4.344-2.592,6.155-3.369
			c-1.218,1.189-2.412,2.375-3.957,3.369c-1.535,0.99-3.723,1.07-4.835,2.639C152.459,122.74,153.459,120.975,154.425,120.814z"/>
		<path fill-rule="evenodd" clip-rule="evenodd" fill="#009E47" d="M195.601,117.297c-0.34-0.541-0.052-1.707-0.147-2.49
			c-2.074-1.102-4.027-2.322-6.301-3.225c0.172,0.756-0.357,2.213,0.293,2.492c1.246,0.023,2.607-0.068,3.224,0.584
			c-0.04,0.303-0.546,0.139-0.585,0.439c0.231,0.014,0.558-0.068,0.585,0.148c-0.004,3.326,0.264,6.379,0.294,9.67
			c0.277,1.43,2.508,1.471,2.783,0C195.857,122.217,195.516,119.969,195.601,117.297z"/>
		<path fill-rule="evenodd" clip-rule="evenodd" fill="#009E47" d="M91.27,112.314c-2.048-1.539-4.675,0.006-4.542,2.344
			c0.182,3.219,5.02,3.465,5.567,0.588C92.515,114.094,92.304,113.092,91.27,112.314z"/>
		<path fill-rule="evenodd" clip-rule="evenodd" fill="#009E47" d="M150.908,115.098c-0.539-3.02-6.684-4.526-8.646-1.758
			c-0.103,0.834,0.248,1.219,0.146,2.053c0.109,0.574-0.309,1.676,0.44,1.611c0.02-0.713-0.181-1.646,0.586-1.611
			c0.464,0.268-0.065,1.531,0.732,1.465c0.194-0.543-0.485-1.865,0.294-2.344c1.209-0.039,2.352-0.01,2.931,0.584
			c0.071,0.66-0.075,1.1-0.146,1.613c0.584-0.146,0.441,0.438,1.025,0.293c-0.102-0.346-0.339-1.311,0-1.611
			c0.874,0.104,1.075,0.877,2.051,0.879c-0.069-0.525-0.237-0.848,0-1.32C150.599,114.92,150.645,115.117,150.908,115.098z"/>
		<path fill-rule="evenodd" clip-rule="evenodd" fill="#009E47" d="M74.857,113.635c0.099,0,0.196,0,0.293,0
			c0.286-0.301,0.984-0.189,1.318-0.439c0.02-0.361,0.023-0.707-0.146-0.881c-0.734-0.049-1.025,0.342-1.758,0.293
			C74.541,113.07,74.56,113.492,74.857,113.635z"/>
		<path fill-rule="evenodd" clip-rule="evenodd" fill="#009E47" d="M139.625,120.814c0.772-0.953,1.231-3.049,0.586-4.543
			c-0.506-0.766-1.014-1.527-1.904-1.904c-0.53-0.596-1.819-0.43-2.931-0.441c-1.508,0.594-2.717,1.486-3.078,3.225
			c-0.142,1.559,0.191,2.641,0.733,3.516C134.378,122.545,138.203,122.689,139.625,120.814z"/>
		<path fill-rule="evenodd" clip-rule="evenodd" fill="#009E47" d="M190.911,115.539c0.394-0.389,0.986-0.576,1.318-1.025
			c-0.841-0.234-2.025-0.125-3.077-0.146c-1.811,0.338-3.234,1.062-3.81,2.637c0.086,1.062-0.113,1.842-0.733,2.197
			c-0.104-0.332-0.13-0.748-0.292-1.025c-0.89-0.574-0.268-2.662-1.025-3.369c-1.033-1.428-3.925-2.334-6.155-1.611
			c2.091,0.957,2.264,4.588,4.836,4.834c0.792,0.076,1.296-0.166,1.611-0.293c1.187,1.783,0.259,3.676,0,5.861
			c-1.693,0.309-2.639,1.367-3.37,2.637c2.475-0.162,4.953-0.32,7.619-0.293c-0.498-1.553-2.02-2.082-3.516-2.637
			c0.017-1.938,0.452-3.455,1.318-4.543c0.357,0.082,0.312,0.568,0.88,0.439c1.36,0.141,1.774-0.666,2.784-0.879
			c0.104,1.459,0.201,2.926,0.146,4.543c0.308,0.57,0.074,1.686,0.146,2.49c0.542,0.898,2.458,1.01,2.784-0.146
			c0.084-3.553-0.323-6.611-0.292-10.111C191.48,114.945,191.177,115.842,190.911,115.539z"/>
		<path fill-rule="evenodd" clip-rule="evenodd" fill="#009E47" d="M74.125,116.125c-1.386,0.227-2.594,0.631-3.224,1.611
			c0.62,0.562,1.393-0.066,1.758,0c-0.51,0.516-1.449,0.604-2.051,1.025C72.583,118.918,74.335,118.523,74.125,116.125z"/>
		<path fill-rule="evenodd" clip-rule="evenodd" fill="#009E47" d="M76.763,118.908c-0.001,0.146,0.118,0.174,0.146,0.293
			c1.963,0.035,4.103-0.959,6.155-1.318c-0.138-2.562-1.031-5.602-1.905-7.912c-0.752-0.117-0.961,0.308-1.611,0.293
			c-0.52,0.066-0.847,0.326-1.466,0.293c-0.908,0.605-2.885,0.143-3.077,1.465c0.364,0.449,0.889-0.176,1.465,0
			c0.211,0.326,0.368,0.707,0.294,1.318c-0.393,0.145-0.773,0.303-1.319,0.295c0,0.145,0,0.291,0,0.439
			c0.217,0.025,0.134,0.354,0.146,0.584c0.64,0.104,0.826-0.248,1.465-0.145c0.195,0.244,0.389,0.49,0.293,1.025
			c-0.151,0.482-0.776,0.494-1.319,0.586c-0.071,0.463,0.265,0.516,0.147,1.025c0.739,0.104,0.819-0.451,1.611-0.293
			c0.025,0.414,0.269,0.609,0.293,1.025C78.012,118.594,76.88,118.244,76.763,118.908z M80.426,113.779
			c-0.649,0.209-0.384-0.496-0.879-0.439c-0.755,0.414-0.078,1.406,0.879,1.027c0.05,1.01,1.478,3.047-0.586,3.076
			c-0.084-0.307-0.363-0.418-0.292-0.879c0.546-0.156,0.232,0.549,0.732,0.439c0.88-0.604-0.366-1.18-1.026-1.172
			c-0.053-1.061-0.245-1.287-0.44-2.346C79.098,112.83,80.44,112.934,80.426,113.779z"/>
		<path fill-rule="evenodd" clip-rule="evenodd" fill="#009E47" d="M92.588,118.322c-1.709,0-3.419,0-5.128,0
			c-0.335,0.789-0.73,2.652-1.172,3.811c2.471,0.654,4.032,2.219,4.835,4.543c0.717-0.162,0.868-0.891,1.465-1.174
			c0.72-0.941-0.053-3.373,0.44-4.543c1.674,0.838,1.017,3.988-0.293,4.689c-0.784,1.072-1.992,1.721-2.931,2.639
			c0,0.342,0,0.684,0,1.025c0.469,0.604,1.375,0.434,1.905,0c0.391-0.391,0.789-0.773,1.319-1.025
			C96.508,126.34,97.207,119.533,92.588,118.322z"/>
		<path fill-rule="evenodd" clip-rule="evenodd" fill="#009E47" d="M173.181,118.029c-4.293,0.146-4.229,6.74,0.146,6.74
			c1.828,0,3.455-1.025,3.37-3.516C176.63,119.271,175.29,117.957,173.181,118.029z M175.379,121.693
			c-0.446-0.043-1.001,0.023-1.026-0.439c-0.047-2.713-3.596,0.75-1.025,1.025c0.44-0.23-0.679-0.514-0.146-0.881
			c0.131-0.113,0.33-0.156,0.587-0.145c0.213,0.617,1.09,0.57,1.171,1.318c-0.885,1.291-3.086,0.629-3.517-0.586
			C170.556,118.664,175.984,118.43,175.379,121.693z"/>
		<path fill-rule="evenodd" clip-rule="evenodd" fill="#009E47" d="M142.116,120.08c0.641-0.006,0.904,0.365,1.318,0.586
			c0.333,3.225,5.344,2.34,6.301,0.293c-1.365-1.004-4.472-3.719-6.008-1.023c1.001,0.609,2.332,0.891,3.518,1.318
			c-2.122-0.078-3.628-0.771-4.837-1.76c-0.169-0.121-0.393-0.193-0.731-0.146C141.521,119.895,141.985,119.822,142.116,120.08z"/>
		<path fill-rule="evenodd" clip-rule="evenodd" fill="#009E47" d="M68.117,132.83c0.021,0.418,0.612,0.268,1.026,0.291
			c0.71-0.412,1.1-1.146,1.318-2.051c-1.093-0.111-2.195,0.537-2.638,0.588c0-1.174,0-2.346,0-3.518
			c3.548-0.215,4.426-3.879,3.81-7.766c-0.678,0.932-1.046,2.176-1.758,3.076c-0.865-1.039-1.465-2.346-2.491-3.225
			c-0.769,1.088-1.376,2.336-2.344,3.225c-0.466-1.146-1.096-2.129-1.758-3.076c-0.225,0.799-0.13,1.922-0.147,2.93
			c0.326,1.92,0.959,3.535,2.345,4.396c0.429,0.303,1.237,0.227,1.611,0.586c0,1.66,0,3.32,0,4.982
			c-0.522-0.553-1.382-0.768-2.491-0.734c0.06,1.26,0.942,2.311,2.198,1.906c-0.009-0.584-1.384-0.564-1.026-1.025
			c0.42,0.264,0.981,0.385,1.318,0.73c0,0.686,0,1.369,0,2.053c0.244,0,0.488,0,0.732,0c0-1.172,0-2.344,0-3.518
			c0.461-0.174,0.776-0.494,1.32-0.584C68.989,132.529,68.48,132.605,68.117,132.83z"/>
		<path fill-rule="evenodd" clip-rule="evenodd" fill="#009E47" d="M83.503,125.648c0.374,0.818-1.973,0.174-1.906,1.172
			c1.934,0.127,2.92-0.693,3.224-2.197c-0.942-0.258-0.73,0.637-1.172,0.879c-0.031-0.164-0.163-0.229-0.293-0.293
			c0.596-0.674,1.019-1.52,1.758-2.051c1.786,0.266,2.71,1.393,3.664,2.49c0.509,0.615,0.636,1.611,1.172,2.199
			c0.009-0.09,0.022-0.174,0.146-0.146c0.124-0.463,0.755-0.418,0.879-0.881c-0.697-1.303-1.46-2.545-2.638-3.369
			c-0.508-0.713-1.715-0.727-2.637-1.025c0.483-0.787,0.712-1.828,0.879-2.932c0.153-0.334,0.458-0.52,0.439-1.025
			c-3.685-0.764-4.547,2.459-4.982,5.422c-0.7-0.887-3.39-1.645-4.396-0.439C80.6,122.32,81.506,125.66,83.503,125.648z
			 M86.141,118.908c-0.386,1.91-0.914,3.678-2.198,4.689c-0.294,0.195-0.341,0.635-0.732,0.732
			C82.807,122.281,83.159,118.541,86.141,118.908z"/>
		<path fill-rule="evenodd" clip-rule="evenodd" fill="#009E47" d="M162.63,121.693c-0.786,0.645-0.591,1.91,0,2.637
			C163.767,124.135,163.79,121.895,162.63,121.693z"/>
		<path fill-rule="evenodd" clip-rule="evenodd" fill="#009E47" d="M164.535,123.451c-0.806,0.467-2.058,1.262-1.466,2.639
			C163.805,125.551,165.244,124.943,164.535,123.451z"/>
		<path fill-rule="evenodd" clip-rule="evenodd" fill="#009E47" d="M160.872,123.451c-0.249,1.664,0.748,2.084,1.758,2.49
			C162.929,124.227,161.836,123.904,160.872,123.451z"/>
		<path fill-rule="evenodd" clip-rule="evenodd" fill="#009E47" d="M174.06,116.271c-7.734-0.84-7.604,10.994-0.146,10.256
			c0.904-0.09,1.733-0.473,2.491-1.025C180.259,122.699,178.124,116.711,174.06,116.271z M177.577,123.012
			c-1.851,5.703-12.28,1.592-7.767-4.25C172.571,115.189,179.259,117.826,177.577,123.012z"/>
		<path fill-rule="evenodd" clip-rule="evenodd" fill="#009E47" d="M164.828,132.242c0.675-0.205,1.236-0.521,2.052-0.584
			c-0.115,0.846,0.212,1.25,0.146,2.051c0.816-0.064,0.683-1.076,1.319-1.318c0.426-1.09,1.071-1.959,1.759-2.785
			c0.303-1.211,1.312-1.717,1.612-2.93c-1.215-0.105-1.809-0.83-2.491-1.467c-1.604,1.523-2.488,3.766-3.811,5.568
			C165.269,131.223,164.42,131.729,164.828,132.242z"/>
		<path fill-rule="evenodd" clip-rule="evenodd" fill="#009E47" d="M162.924,127.848c1.131-0.141,2.256-1.064,1.611-2.492
			C163.745,125.934,162.732,126.287,162.924,127.848z"/>
		<path fill-rule="evenodd" clip-rule="evenodd" fill="#009E47" d="M162.63,127.848c0.216-1.631-0.779-2.055-1.758-2.492
			C160.638,127.006,161.527,127.533,162.63,127.848z"/>
		<path fill-rule="evenodd" clip-rule="evenodd" fill="#009E47" d="M175.965,133.416c0.791,0.234,1.083,0.967,1.904,1.172
			c-0.518-2.803-1.206-5.438-1.758-8.207c-0.95,0.271-1.678,0.766-3.077,0.586c0.292,2.98,1.223,5.324,1.611,8.207
			C175.42,134.922,175.394,133.871,175.965,133.416z"/>
		<path fill-rule="evenodd" clip-rule="evenodd" fill="#009E47" d="M74.565,133.709c3.676-0.258,3.105-5.695,1.172-7.475
			c-1.097,0.721-2.544,2.334-3.37,3.811c-0.184,1.551,0.246,2.49,0.879,3.225c1.397-0.656,1.47-2.633,2.198-3.957
			c-0.004,2.396-1.69,4.361-2.637,6.301C74.048,135.633,73.632,133.998,74.565,133.709z"/>
		<path fill-rule="evenodd" clip-rule="evenodd" fill="#009E47" d="M96.691,142.5c0.13,0.113,0.331,0.158,0.585,0.146
			c1.198-0.512,0.59-2.828,1.905-3.223c1.463-0.492,2.321-1.588,3.371-2.492c1.701-4.275-1.07-8.008-3.371-10.111
			c-1.014,3.234-6.287,6.346-3.224,10.844c0.538,0.342,0.689,1.07,1.465,1.174c1.345-1.83,1.801-4.549,2.491-7.035
			c-0.176,3.732-1.026,6.789-2.637,9.086C97.062,141.406,96.625,141.703,96.691,142.5z"/>
		<path fill-rule="evenodd" clip-rule="evenodd" fill="#009E47" d="M162.63,129.898c0.257-1.674-0.65-2.182-1.758-2.492
			C160.607,129.088,161.764,129.35,162.63,129.898z"/>
		<path fill-rule="evenodd" clip-rule="evenodd" fill="#009E47" d="M163.069,129.898c0.803-0.664,2.061-0.871,1.759-2.637
			C163.78,127.582,162.498,128.447,163.069,129.898z"/>
		<path fill-rule="evenodd" clip-rule="evenodd" fill="#009E47" d="M192.963,128.434c-0.615,1.047-0.568,3.535-1.466,3.809
			c0.201-1.508,0.943-2.475,1.172-3.955c-2.418-0.078-3.298,3.174-2.052,4.982c0.806-0.346,0.717,0.324,1.319,0.291
			C193.939,133.459,194.982,129.566,192.963,128.434z"/>
		<path fill-rule="evenodd" clip-rule="evenodd" fill="#009E47" d="M91.855,129.459c-0.489,1.172-1.247,2.074-2.051,2.932
			c0.089,3.021-0.905,10.725,2.784,7.766c0.013-0.232,0.374-0.115,0.293-0.441v-9.67C93.099,128.404,92.557,128.887,91.855,129.459z
			"/>
		<path fill-rule="evenodd" clip-rule="evenodd" fill="#009E47" d="M90.976,129.898c-0.221,0.443-0.643-0.121-1.026,0
			c0.438,2.928-3.18,1.801-3.517,3.957c-2.664,1.045-6.701-3.146-7.033-4.982c-0.339-1.873,0.609-3.447,2.345-3.957
			c-1.937,0.064-3.311,1.66-3.518,3.078c-0.486,3.342,5.252,8.656,8.206,6.152C87.644,132.525,90.851,132.117,90.976,129.898z"/>
		<path fill-rule="evenodd" clip-rule="evenodd" fill="#009E47" d="M159.7,134.002c0.651,2.789,3.992,2.643,6.008,1.611
			c-0.491-0.877-1.247-1.49-1.612-2.492c-0.618-0.785-1.79-1.508-3.224-1.023c-0.04,0.301-0.546,0.137-0.586,0.438
			c0.453,0.867,1.947,1.471,2.198,2.053c-1.712-0.586-2.489-2.104-3.956-2.93c0.105,0.625,0.902,1.041,1.172,1.611
			C159.791,133.463,159.65,133.791,159.7,134.002z"/>
		<path fill-rule="evenodd" clip-rule="evenodd" fill="#009E47" d="M171.422,137.664c2.82-0.887,1.039-4.348,0.294-6.154
			c-0.52-0.078-0.36,0.52-0.879,0.439c-0.412,0.518-0.881,0.977-1.319,1.467c-1.386,1.742-0.018,4.072,1.319,4.834
			c0.068,0.52-0.241,1.414,0.439,1.32c0.041-1.312-1.099-3.492-0.439-5.424C171.02,135.332,170.957,136.764,171.422,137.664z"/>
		<path fill-rule="evenodd" clip-rule="evenodd" fill="#009E47" d="M86.141,135.027c-0.219,2.656-0.246,7.148,2.638,5.275
			c0.008-0.09,0.022-0.174,0.146-0.146c0.672-1.918,0.106-5.072,0.292-7.475C87.776,133.049,87.107,134.186,86.141,135.027z"/>
		<path fill-rule="evenodd" clip-rule="evenodd" fill="#009E47" d="M188.713,134.734c-1.022-1.621-5.059-2.777-6.593-3.811
			c-0.392,0-0.783,0-1.173,0c0.197,1.121,0.776,1.861,1.465,2.492c0.461,0.223,0.931,0.436,1.465,0.586
			c-0.108-0.646,0.113-0.963,0.44-1.172c2.268,0.562,2.071,3.594,3.37,5.129c-1.936-0.801-1.167-4.305-3.37-4.838
			c-0.496,1.117,0.511,1.906,0.586,2.932c0.329,0.062,0.004,0.777,0.293,0.879c0.6,1.305,0.462,3.348,1.465,4.25
			c1.24,0.615,2.233,1.479,3.37,2.197c0.447-0.773,0.971-1.473,1.173-2.49C188.675,139.924,189.895,136.607,188.713,134.734z"/>
		<path fill-rule="evenodd" clip-rule="evenodd" fill="#009E47" d="M77.349,134.146c-1.841,1.289-1.378,4.418,0,5.863
			C79.354,139.023,79.413,135.113,77.349,134.146z"/>
		<path fill-rule="evenodd" clip-rule="evenodd" fill="#009E47" d="M181.24,135.906c-1.612-1.59-2.878,0.613-4.688,0.586
			c0.428,0.109,0.72,0.355,1.025,0.586c-0.015,0.377-0.573,0.209-0.587,0.586c0.391,0,0.782,0,1.173,0
			c0.595,1.113,0.614,2.807,1.317,3.811c0.784-0.096,1.951,0.191,2.492-0.146c-0.735-0.682-1.934-0.9-1.905-2.344
			c0.687,0.877,1.606,1.518,2.784,1.904c0.2-0.744-0.348-1.5,0-1.904c0.351,0.576,0.501,1.354,0.44,2.344
			c0.435-0.15,1.061-0.111,1.317-0.439c0.305-0.641,0.105-1.535-0.146-2.051c-0.755-0.711-1.539-1.393-2.93-1.467
			C181.656,136.662,181.397,136.336,181.24,135.906z"/>
		<path fill-rule="evenodd" clip-rule="evenodd" fill="#009E47" d="M191.058,136.785c0.17,0.395,0.962-0.58,1.172-0.146
			c-0.453,0.525-1.527,0.428-1.904,1.025c1.6-0.238,3.828,0.002,3.37-2.637C192.55,135.348,190.85,135.113,191.058,136.785z"/>
		<path fill-rule="evenodd" clip-rule="evenodd" fill="#009E47" d="M68.557,137.518c-0.065,0.375-0.206,0.676-0.44,0.881
			c-0.673,2.018,0.796,2.957,1.612,3.955c0.033,0.602-0.118,1.389,0.439,1.465c0.083-1.23-1.069-3.977-0.146-5.568
			c-0.049,1.32,0,2.539,0.293,3.518c2.992-0.689,1.179-4.211,0.586-6.154C69.868,135.996,69.392,136.936,68.557,137.518z"/>
		<path fill-rule="evenodd" clip-rule="evenodd" fill="#009E47" d="M160.14,138.25c-2.337,0.684-3.234,2.684-3.518,5.422
			c3.042-0.084,5.238-1.795,7.181-2.49c-2.12,1.512-4.707,3.324-7.913,3.664c-1.213,0.127-1.945-0.045-2.345,0.879
			c1.072,0.953,2.35-0.482,3.517-0.439c1.197,0.043,2.01,0.932,3.078,1.025c5.172,0.449,6.811-4.705,7.033-8.939
			C165.07,138.467,162.323,137.613,160.14,138.25z"/>
		<path fill-rule="evenodd" clip-rule="evenodd" fill="#009E47" d="M81.305,137.811c-1.113,1.379-3.536,1.445-3.517,3.957
			c0,0.537,0,1.074,0,1.611c0.715-0.359,1.478-0.672,2.198-1.025C81.374,141.936,82.12,139.471,81.305,137.811z"/>
		<path fill-rule="evenodd" clip-rule="evenodd" fill="#009E47" d="M73.539,137.811c-0.664,2.549,0.558,4.271,2.198,4.982
			c0.726-0.041,0.875,0.494,1.465,0.586c0-0.537,0-1.074,0-1.611C77.215,139.215,74.846,139.045,73.539,137.811z"/>
		<path fill-rule="evenodd" clip-rule="evenodd" fill="#009E47" d="M178.602,141.914c-0.218,0.174-0.654,0.127-0.585,0.586
			c0.956,1.34,4.688-0.096,5.567,1.318c-1.918-0.621-5.462,0.383-6.007-1.611c0.202-0.334,0.535-0.537,1.024-0.586
			c-0.649-1.07-2.1-2.086-3.663-1.758c0.232,1.967,2.07,2.326,2.785,3.809c1.479,0.389,1.67,1.934,3.224,2.199
			c1.504,0.256,3.379-0.928,4.981-0.586c0.774,0.164,0.852,0.805,1.759,0.879c0.746-0.572,1.411-1.227,1.758-2.199
			c-1.572-0.625-2.39-2.004-4.103-2.49C183.141,141.666,181.187,142.105,178.602,141.914z"/>
		<path fill-rule="evenodd" clip-rule="evenodd" fill="#009E47" d="M153.838,142.354c-2.692-1.027-6.323-0.379-5.861,3.076
			c-0.29,0.539-1.053,0.609-1.025,1.467c1.479-1.209,2.429-2.943,4.396-3.664c-0.854,0.955-2.169,1.447-2.638,2.785
			C151.893,147.326,152.678,144.012,153.838,142.354z"/>
		<path fill-rule="evenodd" clip-rule="evenodd" fill="#009E47" d="M173.327,141.328c-0.854-0.094-0.814,0.889-1.172,1.318
			c-0.762,0.918-1.867,1.568-2.931,2.199c0.693-0.967,2.042-1.279,2.344-2.639c-3.125-1.344-3.688,2.086-4.982,3.518
			c2.551,1.004,6.246,0.479,5.715-2.932C172.533,142.195,173.329,142.16,173.327,141.328z"/>
		<path fill-rule="evenodd" clip-rule="evenodd" fill="#009E47" d="M80.426,142.646c-1.791,0.701-2.958,2.023-2.638,4.836
			c1.123-0.539,2.251-1.072,3.224-1.758c0.522-0.732,0.952-2.842,0.293-3.811C81.17,142.316,80.843,142.527,80.426,142.646z"/>
		<path fill-rule="evenodd" clip-rule="evenodd" fill="#009E47" d="M75.297,142.939c-0.851,0.176-1.502-1.275-1.758-0.732
			c-0.376,1.062-0.088,2.725,0.44,3.371c0.84,0.867,2.148,1.27,3.223,1.904C77.388,145.146,76.767,143.619,75.297,142.939z"/>
		<path fill-rule="evenodd" clip-rule="evenodd" fill="#009E47" d="M110.904,143.086c0.215-0.469,0.554-0.814,0.44-1.611
			c-1.513-0.869-3.274,0.396-4.835,0c-1.144,1.494-3.133,2.143-3.517,4.396c0.534,0.697,1.965,0.385,2.931,0.293
			c-0.131-0.707-0.415-2.207,0.293-2.492c0.519-1.369,3.385-1.021,3.663,0.293C110.311,143.764,110.472,143.289,110.904,143.086z"/>
		<path fill-rule="evenodd" clip-rule="evenodd" fill="#009E47" d="M106.216,143.818c-0.438,1.346,0.059,2.684,1.172,2.932
			C112.092,146.998,108.736,140.787,106.216,143.818z"/>
		<path fill-rule="evenodd" clip-rule="evenodd" fill="#009E47" d="M89.657,155.834c1.467-0.441,1.545-2.43,1.758-3.664
			c-0.084-0.402-0.364-0.609-0.439-1.023c2.118-1.311,6.118-1.49,5.861-4.689c1.843-0.357,3.071-1.326,4.689-1.906
			c-0.007-0.051,0.128-0.293,0.147-0.293c-1.355-0.1-2.853,1.936-4.689,1.76c1.354-1.285,3.064-2.211,5.129-2.785
			c-0.553-0.113-0.701,0.18-1.172,0.146c-0.044-0.385,0.568-0.115,0.439-0.586c-0.451-0.109-0.281,0.402-0.732,0.293
			c-0.022-0.195,0.595-0.441,0.146-0.586c-0.773,0.789-1.844,2.061-2.783,2.197c0.797-0.766,1.682-1.443,2.344-2.344
			c-1.008,0.408-1.312,1.521-2.344,1.904c0.638-0.826,1.501-1.428,2.051-2.344c-0.888,0.334-1.167,1.275-1.905,1.758
			c-0.58,0.838-1.263,1.57-2.051,2.199c-2.693-1.889-4.703,2.172-6.595,2.49c0.727-1.721-0.473-3.209-2.198-2.49
			c-0.526-1.363,0.217-3.357,0.147-4.25c-0.315,0.564-0.353,1.406-0.732,1.904c-0.208-0.383-0.949-0.998-1.466-0.586
			c0.638,0.828,1.899,1.031,1.612,2.785c-0.744-0.158-0.901,0.27-1.172,0.586c0.911,3.037-1.563,3.492-1.466,6.154
			c-0.054,2.094-1.832,2.465-3.37,3.076c1.735,0.074,2.746-0.574,3.956-1.025C85.274,155.273,88.354,156.229,89.657,155.834z"/>
		<path fill-rule="evenodd" clip-rule="evenodd" fill="#009E47" d="M122.334,147.629c-2.005-1.129-5.598-4.449-7.473-1.025
			c1.172,0.73,2.804,1.006,4.249,1.465c-2.946,0.113-4.401-1.266-6.594-1.904c-0.032,0.959,1.041,0.812,1.758,1.025
			C114.919,151.26,120.845,150.318,122.334,147.629z"/>
		<path fill-rule="evenodd" clip-rule="evenodd" fill="#009E47" d="M74.125,146.457c-0.299-0.043-0.288-0.396-0.586-0.439
			c-0.946,3.484,1.521,4.695,3.663,5.568C77.597,148.455,76.031,147.285,74.125,146.457z"/>
		<path fill-rule="evenodd" clip-rule="evenodd" fill="#009E47" d="M81.598,146.457c-0.211-0.033-0.051-0.438-0.292-0.439
			c-1.607,1.371-4.076,1.883-3.517,5.422C79.583,150.889,82.252,149.943,81.598,146.457z"/>
		<path fill-rule="evenodd" clip-rule="evenodd" fill="#009E47" d="M147.831,152.904c-0.938-1.531-3.391,1.152-4.982-0.146
			c2.402,0.057,4.18-0.51,5.422-1.611c0.033-0.279-0.166-0.324-0.146-0.588c-1.825-0.535-3.719,1.637-5.568,0.588
			c1.914-0.432,4.484-0.205,4.689-2.346c-1.729-0.281-3.268,1.594-5.568,0.732c0.5-0.867,1.662-1.072,1.465-2.637
			c-2.166,0.051-3.34,2.311-5.568,2.783c-1.433,1.459-1.653,6.236,1.026,6.447c2.859-0.021,5.926,0.164,8.205-0.439
			c0.482-0.355,0.21-0.885,0-1.318c-1.164,0.027-3.111,0.773-4.103,0C144.837,154.307,147.19,154.463,147.831,152.904z
			 M139.625,154.662c-0.102-1.199,0.75-1.465,1.759-1.172C141.395,154.467,140.585,155.109,139.625,154.662z"/>
		<path fill-rule="evenodd" clip-rule="evenodd" fill="#009E47" d="M171.716,147.043c-1.396,1.912-5.02,0.416-7.089,0.578
			c0.366-0.004,0.374,0.352,0.348,0.74c-2.254,0.252-4.836,2.107-6.887,2.197c-2.989,0.135-3.773-3.176-6.155-3.955
			c0.288,1.273,1.432,2.537,1.319,4.104c-0.163,2.281-2.6,3.072-2.931,4.688c3.01-0.748,5.004-4.537,8.646-3.225
			c1.224,0.535,2.654,0.863,3.956,1.32c0.675,0.008,1.3,0.068,1.758,0.293c-0.055,0.678-0.932,0.533-1.025,1.172
			c3.198-0.229,6.411-0.691,9.817-0.293c2.088-0.061,4.443,0.146,6.301-0.146c1.499-0.357,3.066-0.646,4.249-1.318
			c0.064-0.572,0.347-0.924,0.733-1.172C182.405,148.369,176.372,148.393,171.716,147.043z"/>
		<path fill-rule="evenodd" clip-rule="evenodd" fill="#009E47" d="M110.758,149.533c0.304-0.086,0.962,0.182,1.025-0.146
			c-0.329-0.354-0.615-0.75-0.879-1.172c-0.598-0.867-1.94-0.99-3.517-0.879c-2.443-0.295-3.26,1.037-3.956,2.49
			c0,0.049,0,0.1,0,0.146c1.177,0.25,1.556-0.299,2.051-0.732c0,0.244,0,0.488,0,0.732
			C107.601,150.186,108.984,149.664,110.758,149.533z"/>
		<path fill-rule="evenodd" clip-rule="evenodd" fill="#009E47" d="M129.367,153.783c1.062-2.26,0.077-5.162-1.318-6.301
			c-0.439,1.27-0.797,2.623-0.732,4.396c0.015,1,1.222,1.695,1.318,2.637c0.083,0.818-0.642,1.217-0.44,2.051
			c0.063-0.918,1.134-1.598,1.026-2.197c-0.043,0.131-0.397,0.641-0.44,0.293C128.816,154.209,129.189,154.094,129.367,153.783z"/>
		<path fill-rule="evenodd" clip-rule="evenodd" fill="#009E47" d="M114.275,155.688c1.031-0.629,1.853-1.467,2.345-2.637
			c-1.93-0.951-2.96-2.803-5.423-3.225c-1.093-0.188-1.927,0.328-2.93,0.441c-2.111,0.234-5.192-0.689-6.008,0.879
			c1.206,1.676,5.925-0.162,7.034,1.611c-2.215-0.336-10.667-0.545-6.155-2.932c-1.162-1.043-2.655-2.512-4.835-2.051
			c0.328,1.635,1.834,2.924,3.077,4.104c1.238,1.172,3.331,3.381,4.982,3.516C108.757,155.59,112.175,153.396,114.275,155.688z"/>
		<path fill-rule="evenodd" clip-rule="evenodd" fill="#009E47" d="M98.449,150.412c-1.228,0.336-2.948,0.178-2.784,1.906
			c0.581,0.227,0.895-0.555,1.172-0.148c-0.524,0.404-1.413,0.443-1.904,0.881C96.981,153.113,98.652,152.896,98.449,150.412z"/>
		<path fill-rule="evenodd" clip-rule="evenodd" fill="#009E47" d="M129.953,153.783c1.182,0.008,1.426-0.92,2.052-1.465
			c0.336-0.936,0.719-1.822,0.879-2.932c-0.95,1.441-2.514,2.273-2.931,4.25C129.953,153.686,129.953,153.734,129.953,153.783z"/>
		<path fill-rule="evenodd" clip-rule="evenodd" fill="#009E47" d="M127.902,156.566c-0.544,1.168-0.992,2.428-1.758,3.371
			c-0.067-0.799,0.261-1.205,0.146-2.051c1.686-1.004,1.036-4.543-0.146-5.568c-0.821-0.5-2.144-1.273-3.371-0.879
			c1.669,0.967,0.795,4.48,2.051,5.859c0.41,0.275,0.664,0.705,1.319,0.734c-0.11,1.355-0.227,2.703-0.733,3.662
			c0.679-0.689,1.188-1.547,2.052-2.051c0-0.049,0-0.098,0-0.146c-0.454-0.146-0.57,0.779-0.879,0.293
			C126.934,158.723,128.037,157.633,127.902,156.566z"/>
		<path fill-rule="evenodd" clip-rule="evenodd" fill="#009E47" d="M121.601,155.98c-0.739-1.361-2.05-2.148-3.077-3.223
			C115.564,154.877,119.426,158.93,121.601,155.98z M118.377,153.93c0.947,0.342,1.95,1.346,2.051,2.051
			C119,156.604,117.997,155.6,118.377,153.93z"/>
		<path fill-rule="evenodd" clip-rule="evenodd" fill="#009E47" d="M127.609,159.498c0.119-0.027,0.146-0.146,0.293-0.146
			c0.06-0.184,0.188-0.299,0.439-0.293c3.576,1.721,4.805-3.59,7.181-4.689c-0.196,0-0.391,0-0.586,0
			c-3.908-0.146-6.612,0.91-6.888,4.396C128.17,159.193,127.175,159.24,127.609,159.498z"/>
		<path fill-rule="evenodd" clip-rule="evenodd" fill="#009E47" d="M158.088,154.223c-1.993,0.211-2.602,3.373-1.466,4.982
			c1.156-1.113,4.557-1.916,2.932-4.396c-0.895,0.377-1.531,1.789-2.198,1.904c0.776-1.127,1.642-2.166,2.931-2.783
			c0.001-0.291,0.399-0.188,0.293-0.586C159.602,153.49,159.574,154.586,158.088,154.223z"/>
		<path fill-rule="evenodd" clip-rule="evenodd" fill="#009E47" d="M177.137,155.834c-1.822,0.229-3.421,0.684-3.224,2.932
			c1.176,0.051,1.899-1.127,2.639-1.027c-0.85,1.205-2.899,1.205-3.957,2.199c0.875,0.191,0.854-0.514,1.611-0.439
			c2.298,0.977,3.969-0.678,4.103-2.785c0-0.342,0-0.684,0-1.025C177.838,155.656,177.689,155.947,177.137,155.834z"/>
		<path fill-rule="evenodd" clip-rule="evenodd" fill="#009E47" d="M94.2,159.938c0.875,0.59,1.522,1.408,2.931,1.465
			c0.753,0.762,0.639,2.389,1.172,3.371c0-0.146,0-0.293,0-0.439c-0.81-3.734-1.671-7.416-5.715-7.912
			C92.784,157.936,93.727,158.701,94.2,159.938z"/>
		<path fill-rule="evenodd" clip-rule="evenodd" fill="#009E47" d="M97.423,155.102c0.329,1.793-0.87,4.264,0.586,4.982
			C99.015,158.674,98.18,156.121,97.423,155.102z"/>
		<path fill-rule="evenodd" clip-rule="evenodd" fill="#009E47" d="M112.809,161.99c0.775,0.041,0.775-0.691,1.319-0.881
			c0.779-0.881,1.569-1.752,2.491-2.49c0.428-0.744,1.304-1.039,1.611-1.906c-0.21-0.082-0.357-0.227-0.439-0.439
			c-2.016,1.551-3.656,3.475-5.422,5.275C112.582,161.631,112.727,161.777,112.809,161.99z"/>
		<path fill-rule="evenodd" clip-rule="evenodd" fill="#009E47" d="M86.58,159.791c0.726,0.203,1.281,0.576,2.198,0.586
			c0.465-3.152-3.168-2.986-5.275-3.078c0.017,2.949,2.173,5.486,5.275,3.957c0.618,0.066,0.79,0.578,1.612,0.439
			C89.548,160.729,86.888,160.805,86.58,159.791z"/>
		<path fill-rule="evenodd" clip-rule="evenodd" fill="#009E47" d="M107.681,156.861c-0.572,0.258-0.942,0.719-1.758,0.732
			c-0.384,0.105-0.449,0.527-0.879,0.586c-0.013,0.842-0.032,1.691,0.146,2.344c0.847-0.424,1.844-0.697,2.198-1.613
			c-0.001-0.387,0.056-0.836-0.147-1.023c-0.538,0.096-0.729,0.539-1.025,0.879C105.973,157.982,107.477,157.684,107.681,156.861z"
			/>
		<path fill-rule="evenodd" clip-rule="evenodd" fill="#009E47" d="M98.595,161.99c-0.411,2.428,1.449,3.441,0.294,5.127
			c-0.202-0.727-0.235-1.621-0.44-2.344c-0.497,0.65,0.561,1.775,0,2.49c-1.008-1.775-1.236-5.176-3.664-5.715
			c-0.581-0.129-1.387,0.016-2.344,0.146c-0.57,0.357-1.394,0.463-1.758,1.025c3.148,0.145,3.229,4.072,6.887,3.225
			c0,0.488,0.476,0.5,0.439,1.025c0.561,0.465,0.834,1.217,1.025,2.051c0.324-0.018,0.063-0.621,0.147-0.879
			c-0.328-0.818,0.428-1.816,0.439-2.783c0.509,0.117,0.564-0.219,1.026-0.146c1.99-1.086,1.127-5.027,1.758-7.475
			c0.049,0,0.098,0,0.147,0c0.007-0.186,0.188-0.201,0.146-0.439C100.803,158.648,99.001,159.594,98.595,161.99z"/>
		<path fill-rule="evenodd" clip-rule="evenodd" fill="#009E47" d="M154.571,157.594c-0.922,0.543-1.258,1.672-1.611,2.783
			c1.005-0.164,2.186-0.268,3.076-0.146C155.712,159.188,154.825,158.707,154.571,157.594z"/>
		<path fill-rule="evenodd" clip-rule="evenodd" fill="#009E47" d="M132.592,165.066c-0.206-0.643-0.011-0.871,0.292-1.318
			c0.28,0.061,0.266,0.418,0.733,0.293c0.518-0.822-0.248-1.467-0.439-2.051c0.259-0.035,0.733,0.146,0.587-0.295
			c-4.362-2.605-7.032,2.102-8.354,4.543c-0.928-0.146-0.763-1.385-1.026-2.197c-0.309-0.668-0.425-1.529-0.732-2.199
			c-0.452-0.572-1.042-1.01-1.612-1.465c0.131-0.26,0.409-0.373,0.293-0.879c-0.268-0.318-0.708-0.467-1.026-0.732
			c-1.262,0.045-1.762,1.111-2.051,2.49c0.213,0.08,0.757-0.17,0.732,0.146c-0.491,2.6-3.295,5.602-0.879,8.059
			c0.868,0.988,1.816,1.896,2.784,2.785c0.831,0.146,1.144,0.811,2.051,0.879c-0.145,1.564-2.007,1.412-3.077,2.051
			c1.704,0.064,3.367,0.58,4.542,0c-0.196-0.096-0.273-0.312-0.292-0.586c0.823-0.789,1.92-1.303,1.758-3.076
			c0.254,0.01,0.456-0.033,0.586-0.146c0.081-0.674-0.436-1.512,0-2.053c0.397,0.189,0.52,0.652,1.172,0.588
			c0.128-1.057-0.331-1.525-0.44-2.346c1.017,0.303,0.612,2.025,1.758,2.197c0.072-0.658-0.074-1.098-0.146-1.611
			c0.44-0.242,1.258-0.109,1.759-0.293c0.006-0.639-0.127-1.143-0.293-1.611c0.853,0.217,0.761-0.51,0.732-1.172
			C132.2,165.066,132.396,165.066,132.592,165.066z"/>
		<path fill-rule="evenodd" clip-rule="evenodd" fill="#009E47" d="M161.604,162.135c0.016-1.188,0.011-2.355-0.292-3.225
			c-0.751,0.619-1.614,1.123-2.492,1.613C159.58,161.23,160.781,161.492,161.604,162.135z"/>
		<path fill-rule="evenodd" clip-rule="evenodd" fill="#009E47" d="M142.408,164.334c-0.47-1.043-1.193-1.834-1.464-3.078
			c-0.772-1.133-1.576-2.234-3.811-1.904c-0.101,0.291-0.873-0.092-0.732,0.439c0.615,1.191,2.154,2.24,2.637,3.078
			c-1.997-1.08-3.037-3.117-4.542-4.689c-0.24,1.363,0.988,1.258,1.172,2.197C134.853,164.256,139.006,165.494,142.408,164.334z"/>
		<path fill-rule="evenodd" clip-rule="evenodd" fill="#009E47" d="M150.321,161.256c-0.938-0.525-1.895-1.035-2.93-1.465
			c-0.037,1.209,0.258,2.086,0.146,3.371C148.391,162.451,149.329,161.826,150.321,161.256z"/>
		<path fill-rule="evenodd" clip-rule="evenodd" fill="#009E47" d="M166.44,159.791c0.933,0.973,2.413,1.398,3.663,2.051
			c-2.641-0.191-3.846-1.82-5.715-2.783c0.062,1.355,2.062,0.77,1.759,2.49c0.29,0.639,0.754,1.102,1.172,1.613
			c2.041,1.021,4.637-0.043,5.861-1.172C171.503,160.777,168.962,157.002,166.44,159.791z"/>
		<path fill-rule="evenodd" clip-rule="evenodd" fill="#009E47" d="M113.688,163.307c-1.129-0.854-1.622-2.537-3.077-2.637
			c-2.057-0.141-2.842,2.641-4.542,3.371c0.892,1.451,2.357,2.332,3.37,3.662c0.483,0.055,0.296,0.779,0.879,0.732
			C111.229,166.514,113.852,166.305,113.688,163.307z"/>
		<path fill-rule="evenodd" clip-rule="evenodd" fill="#009E47" d="M161.897,163.453c-1.27-0.975-2.799-1.693-4.542-2.197
			c-8.649-1.027-13.964,5.344-11.869,13.627c6.967-0.994,12.751-3.17,18.316-5.568c0.317-0.414,1.172-0.293,1.318-0.879
			c-0.135-1.184-0.817-1.818-1.172-2.783C163.235,164.949,162.702,164.066,161.897,163.453z"/>
		<path fill-rule="evenodd" clip-rule="evenodd" fill="#009E47" d="M163.656,164.041c0.294,0.242,0.681,0.393,0.732,0.879
			c0.513,0.367,0.708,1.049,1.025,1.611c0.405,0.062,0.138-0.547,0.439-0.586c0.404-0.623,0.529-1.523,1.026-2.053
			C166.448,163.447,164.309,163.74,163.656,164.041z"/>
		<path fill-rule="evenodd" clip-rule="evenodd" fill="#009E47" d="M142.702,165.506c0.667,0.797,1.209,1.721,1.759,2.637
			c0.343-1.17,0.806-2.221,1.465-3.076C144.959,165.32,143.465,165.047,142.702,165.506z"/>
		<path fill-rule="evenodd" clip-rule="evenodd" fill="#009E47" d="M104.75,168.73c0.889,0.477,1.721,1.012,2.784,1.318
			c0.194,0,0.391,0,0.585,0c0.346-3.033-2.615-2.758-4.835-3.225c-0.146,0-0.293,0-0.439,0c0,0.244,0,0.488,0,0.732
			c0.652,1.984,1.031,4.244,4.103,3.811c0.803-1.08,2.028,0.521,2.784-0.293C107.812,170.648,105.478,169.859,104.75,168.73z"/>
		<path fill-rule="evenodd" clip-rule="evenodd" fill="#009E47" d="M136.694,167.117c-1.55,0-3.338-0.191-4.25,0.293
			c-0.522,1.285-0.338,4.057-0.146,5.568c0.979,1.609,5.232,0.727,7.327,0.732c1.757-0.4,0.898-4.17,0.88-5.861
			C140.114,166.715,138.172,167.117,136.694,167.117z M137.573,170.928c-0.607,0.02-0.152-1.021-0.293-1.467
			c0.623-0.133,0.738,0.24,0.88,0.588c0.292-0.195,0.019-0.959,0.732-0.734c0,0.539,0,1.076,0,1.613
			c-0.718,0.131-0.711-0.463-1.026-0.734C137.458,170.129,137.981,170.994,137.573,170.928z"/>
		<path fill-rule="evenodd" clip-rule="evenodd" fill="#009E47" d="M117.938,169.609c-0.848-0.561-2.148-0.979-3.518-0.588
			c-0.024,1.453,2.206,2.672,2.638,3.664c-2.063-1.162-3.114-3.334-4.689-4.982c-0.195,0.918,0.97,1.354,1.172,2.199
			c0.189,0.787-0.254,1.619,0,2.344c0.797,2.27,3.82,2.484,6.594,1.611c-0.244-0.293-0.532-0.543-0.586-1.025
			C119.033,171.738,118.538,170.619,117.938,169.609z"/>
		<path fill-rule="evenodd" clip-rule="evenodd" fill="#009E47" d="M144.021,170.633c-0.935,0.629-1.945,1.182-2.784,1.906
			c1.103,0.314,1.854,0.979,2.931,1.318C143.926,172.977,144.049,171.73,144.021,170.633z"/>
		<path fill-rule="evenodd" clip-rule="evenodd" fill="#009E47" d="M111.491,38.756c1.473-0.188,3.701,0.38,4.689-0.292
			c-0.785-0.791-4.11-0.563-5.128-0.147C110.963,38.697,111.109,38.844,111.491,38.756z"/>
		<path fill-rule="evenodd" clip-rule="evenodd" fill="#009E47" d="M150.321,54.581c0.101,0.609-0.723,1.868,0.147,2.345
			c0-0.147,0-0.292,0-0.439c-0.705-2.122,1.656-2.445,3.809-2.198c0.351,0.089,1.063-0.184,1.173,0.146
			c1.288-0.018,2.516,0.023,3.518,0.293c0.704-0.161,1.394,0.452,1.904,0c-0.213-0.08-0.757,0.171-0.732-0.147
			c0.836-0.196,1.604,0.44,2.197,0C158.721,54.22,153.427,52.771,150.321,54.581z"/>
		<path fill-rule="evenodd" clip-rule="evenodd" fill="#009E47" d="M78.082,119.494c-0.054,0.25,0.114,0.277,0.293,0.293
			c1.761-0.631,4.156-0.631,5.568-1.611c-0.099-2.832-1.25-4.611-1.466-7.326c-0.389,0.047,0.137-0.821-0.439-0.586
			c-0.009,2.389,2.022,5.451,1.319,8.059C81.466,118.58,80.049,119.312,78.082,119.494z"/>
		<path fill-rule="evenodd" clip-rule="evenodd" fill="#009E47" d="M133.91,175.322c0.033,0.277-0.165,0.324-0.146,0.588
			c1.611,0,3.224,0,4.835,0c0.146,0,0.293,0,0.438,0C138.63,174.5,135.236,175.33,133.91,175.322z"/>
		<path fill-rule="evenodd" clip-rule="evenodd" fill="#009E47" d="M92.939,61.342l-1.872-0.223l-0.052,0.436l1.608,0.191
			l0.861,2.252c0.335,1.209,0.763,2.326,1.155,3.479c0.25,0.288,0.169,0.906,0.439,1.172c1.4,0.08,4.499,0.592,5.422-0.293
			c-1.709,0-3.418,0-5.128,0c-0.299-0.594-0.544-1.24-0.71-1.967h6.057l0.547-1.641h0.005v-0.016l0.829-2.486h-3.004l-0.005-0.002
			l0,0.002H95.99l-0.001-0.002l-0.005,0.002h-2.699L92.939,61.342z M94.767,65.949l-0.468-1.201h1.938l0.338,1.201H94.767z
			 M98.048,65.949H97.03l-0.337-1.201h1.693L98.048,65.949z M100.401,65.949h-1.896l0.338-1.201h1.959L100.401,65.949z
			 M99.422,62.686h2.067l-0.541,1.623h-1.981L99.422,62.686z M98.966,62.686l-0.456,1.623h-1.94l-0.456-1.623H98.966z
			 M95.657,62.686l0.456,1.623h-1.986l-0.631-1.623H95.657z"/>
		<path fill-rule="evenodd" clip-rule="evenodd" fill="#009E47" d="M100.208,70.553c0.112-0.346,0.289-1.013,0-1.318
			c-1.071-0.666-1.931,0.683-1.173,1.466C99.539,70.764,99.856,70.642,100.208,70.553z"/>
		<path fill-rule="evenodd" clip-rule="evenodd" fill="#009E47" d="M96.397,70.7c0.654-0.755,0.146-1.96-1.172-1.612
			C94.588,69.826,95.035,71.094,96.397,70.7z"/>
		<path fill-rule="evenodd" clip-rule="evenodd" fill="#009E47" d="M184.198,99.17h0.004v-0.013l0.617-1.849h-2.235l-0.005-0.002
			v0.002h-2.306l-0.001-0.002l-0.004,0.002h-2.008l-0.257-0.674l-1.393-0.166l-0.039,0.325l1.196,0.142l0.677,1.77l0.032-0.014
			l0.258,0.66c0.041,0.224,0.226,0.527,0.16,0.734c0.312,0.586,0.446,1.348,0.707,1.984c-0.003,0-0.005,0-0.007,0
			c0.002,0,0.004,0.002,0.007,0.002c0.009,0.021,0.017,0.045,0.025,0.066c0.127-0.02,0.263-0.028,0.401-0.033
			c0.848,0.076,2.078,0.217,2.906,0.053c0.38-0.039,0.708-0.128,0.941-0.314c-1.318,0-2.637,0-3.956,0
			c-0.236-0.43-0.404-0.926-0.544-1.453h4.415L184.198,99.17z M182.827,97.635h1.537l-0.401,1.207h-1.475L182.827,97.635z
			 M182.487,97.635l-0.34,1.207h-1.443l-0.338-1.207H182.487z M178.418,97.635h1.607l0.34,1.207h-1.479L178.418,97.635z
			 M179.363,100.063l-0.349-0.894h1.442l0.251,0.894H179.363z M181.805,100.063h-0.757l-0.251-0.894h1.26L181.805,100.063z
			 M182.146,100.063l0.251-0.894h1.458l-0.299,0.894H182.146z"/>
		<path fill-rule="evenodd" clip-rule="evenodd" fill="#009E47" d="M182.539,103.598c0.375,0.048,0.611-0.044,0.872-0.109
			c0.083-0.257,0.216-0.754,0-0.98C182.615,102.012,181.975,103.015,182.539,103.598z"/>
		<path fill-rule="evenodd" clip-rule="evenodd" fill="#009E47" d="M179.705,102.398c-0.474,0.549-0.142,1.492,0.872,1.199
			C181.063,103.036,180.686,102.14,179.705,102.398z"/>
	</g>
</g>
</svg>
